<svg width="600" height="451" viewBox="0 0 600 451" fill="none" xmlns="http://www.w3.org/2000/svg">
<path d="M38.71 0.5H561.291V375.499H38.71V0.5Z" fill="#787681"/>
<path d="M541.936 0.5H561.291V375.499H541.936V0.5Z" fill="#57565C"/>
<path d="M77.4192 38.0029H522.581V338.002H77.4192V38.0029Z" fill="#52BBE9"/>
<path d="M503.226 38.0029H522.581V338.002H503.226V38.0029Z" fill="#1CABE1"/>
<path d="M0 375.5H600V450.5H0V375.5Z" fill="#AEADB3"/>
<path d="M580.645 375.5H600V450.5H580.645V375.5Z" fill="#8B8893"/>
<path d="M329.032 413H270.967L251.613 375.5H348.387L329.032 413Z" fill="white"/>
<path d="M425.806 188.001C425.806 183.028 427.845 178.259 431.475 174.743C435.105 171.226 440.028 169.251 445.161 169.251V113.001H154.838V169.251C159.972 169.251 164.895 171.226 168.524 174.743C172.154 178.259 174.193 183.028 174.193 188.001C174.193 192.974 172.154 197.743 168.524 201.259C164.895 204.775 159.972 206.751 154.838 206.751V263.001H445.161V206.751C440.028 206.751 435.105 204.775 431.475 201.259C427.845 197.743 425.806 192.974 425.806 188.001Z" fill="#FEE27D"/>
<path d="M445.161 169.251V113.001H425.806V169.251C420.673 169.251 415.75 171.226 412.121 174.743C408.491 178.259 406.452 183.028 406.452 188.001C406.452 192.974 408.491 197.743 412.121 201.259C415.75 204.775 420.673 206.751 425.806 206.751V263.001H445.161V206.751C440.028 206.751 435.105 204.775 431.475 201.259C427.846 197.743 425.806 192.974 425.806 188.001C425.806 183.028 427.846 178.259 431.475 174.743C435.105 171.226 440.028 169.251 445.161 169.251Z" fill="#FDDD5A"/>
<path d="M290.323 236.01L244.839 191.76L258.388 178.635L290.323 209.385L360.388 140.01L374.129 153.135L290.323 236.01Z" fill="white"/>
</svg>
