<svg width="1440" height="201" viewBox="0 0 1440 201" fill="none" xmlns="http://www.w3.org/2000/svg">
<path opacity="0.3" d="M1441 89C1415.28 116.77 1363.73 144.009 1211.71 146C878.515 150.363 667.458 43 419.708 43C280.825 43 113.962 84.2172 0.999878 122V181H1441L1441 89Z" fill="#344D67"/>
<path opacity="0.3" d="M78.2881 59.4671C259.01 50.4448 349.198 146.002 682.391 150.365C1015.58 154.728 1127.82 0.0671051 1375.57 0.0671051C1401.03 0.0671051 1422.83 -0.163308 1441 0.229776V159.23H1L1 73.2298C1 73.2298 41.9749 61.28 78.2881 59.4671Z" fill="#344D67"/>
<path opacity="0.3" d="M143.75 45.5019C324.472 36.4795 348.198 152.037 681.391 156.4C1014.58 160.763 1126.82 46.1018 1374.57 46.1018C1398.9 46.1018 1420.29 47.2351 1439.1 49.279L1440 165.265H0V110.265C34.8121 75.7426 81.4837 48.6104 143.75 45.5019Z" fill="#344D67"/>
<path opacity="0.3" d="M78.2881 71.4671C259.01 62.4448 349.198 158.002 682.391 162.365C1015.58 166.728 1127.82 12.0671 1375.57 12.0671C1401.03 12.0671 1422.83 11.8367 1441 12.2298V171.23H1L1 85.2298C1 85.2298 41.9749 73.28 78.2881 71.4671Z" fill="#344D67"/>
<path d="M1441 200.275H1V159.275C469.668 82.1234 1215.4 221.048 1441 138.275V200.275Z" fill="white"/>
</svg>
