<svg width="51" height="41" viewBox="0 0 51 41" fill="none" xmlns="http://www.w3.org/2000/svg">
<path d="M6.75 0.5H44.25V40.5H6.75V0.5Z" fill="#ECEFF1"/>
<path d="M45.8125 0.5H44.25L25.5 16.2933L6.75 0.5H5.1875C3.9443 0.5 2.75201 1.02678 1.87294 1.96447C0.99386 2.90215 0.5 4.17392 0.5 5.5L0.5 35.5C0.5 36.8261 0.99386 38.0979 1.87294 39.0355C2.75201 39.9732 3.9443 40.5 5.1875 40.5H6.75V9.32L25.5 24.7033L44.25 9.31667V40.5H45.8125C47.0557 40.5 48.248 39.9732 49.1271 39.0355C50.0061 38.0979 50.5 36.8261 50.5 35.5V5.5C50.5 4.17392 50.0061 2.90215 49.1271 1.96447C48.248 1.02678 47.0557 0.5 45.8125 0.5Z" fill="#F44336"/>
</svg>
