<svg width="51" height="51" viewBox="0 0 51 51" fill="none" xmlns="http://www.w3.org/2000/svg">
<path d="M44.25 0.5H6.75C3.30312 0.5 0.5 3.30312 0.5 6.75V44.25C0.5 47.6969 3.30312 50.5 6.75 50.5H44.25C47.6969 50.5 50.5 47.6969 50.5 44.25V6.75C50.5 3.30312 47.6969 0.5 44.25 0.5Z" fill="#1976D2"/>
<path fill-rule="evenodd" clip-rule="evenodd" d="M42.6875 25.5H34.875V19.25C34.875 17.525 36.275 17.6875 38 17.6875H41.125V9.875H34.875C32.3886 9.875 30.004 10.8627 28.2459 12.6209C26.4877 14.379 25.5 16.7636 25.5 19.25V25.5H19.25V33.3125H25.5V50.5H34.875V33.3125H39.5625L42.6875 25.5Z" fill="#FAFAFA"/>
</svg>
