<svg width="50" height="50" viewBox="0 0 50 50" fill="none" xmlns="http://www.w3.org/2000/svg">
<path d="M47.4211 7.89474H42.1053V2.57895C42.1053 1.15789 40.9474 0 39.5263 0H39.4474C38 0 36.8421 1.15789 36.8421 2.57895V7.89474H31.5526C30.1316 7.89474 28.9737 9.05263 28.9474 10.4737V10.5526C28.9474 12 30.1053 13.1579 31.5526 13.1579H36.8421V18.4474C36.8421 19.8684 38 21.0526 39.4474 21.0263H39.5263C40.9474 21.0263 42.1053 19.8684 42.1053 18.4474V13.1579H47.4211C48.8421 13.1579 50 12 50 10.5789V10.4737C50 9.05263 48.8421 7.89474 47.4211 7.89474ZM34.2105 18.4474V15.7895H31.5526C30.1579 15.7895 28.8421 15.2368 27.8421 14.2632C26.8684 13.2632 26.3158 11.9474 26.3158 10.4737C26.3158 9.52632 26.5789 8.65789 27.0263 7.89474H5.26316C2.36842 7.89474 0 10.2632 0 13.1579V44.7368C0 47.6316 2.36842 50 5.26316 50H36.8421C39.7368 50 42.1053 47.6316 42.1053 44.7368V22.9474C41.3158 23.3947 40.4211 23.6842 39.4211 23.6842C36.5526 23.6579 34.2105 21.3158 34.2105 18.4474ZM34.1053 44.7368H7.89474C6.81579 44.7368 6.18421 43.5 6.8421 42.6316L12.0526 35.7105C12.6053 34.9737 13.6842 35.0263 14.2105 35.7632L18.4211 42.1053L25.2895 32.9474C25.8158 32.2632 26.8421 32.2368 27.3684 32.9211L35.1316 42.6053C35.8158 43.4737 35.2105 44.7368 34.1053 44.7368Z" fill="black"/>
</svg>
