<svg width="92" height="93" viewBox="0 0 92 93" fill="none" xmlns="http://www.w3.org/2000/svg">
<g filter="url(#filter0_dd_167_606)">
<path d="M12.5063 28.3344C14.8742 16.8784 22.1602 10.4978 33.5249 8.57022C41.9261 7.14563 50.3304 7.12759 58.7175 8.61023C70.4191 10.6786 77.4537 17.4314 79.6947 29.0606C81.426 38.048 81.4532 47.1313 79.6675 56.1102C77.2719 67.4869 69.798 74.5094 58.4752 76.4299C50.074 77.8543 41.6697 77.8724 33.2826 76.3899C21.581 74.3213 14.5151 67.2315 12.2743 55.6024C10.4546 46.5557 10.6297 37.415 12.5063 28.3342V28.3344Z" fill="black"/>
</g>
<path d="M12.5063 28.3344C14.8742 16.8784 22.1602 10.4978 33.5249 8.57022C41.9261 7.14563 50.3304 7.12759 58.7175 8.61023C70.4191 10.6786 77.4537 17.4314 79.6947 29.0606C81.426 38.048 81.4532 47.1313 79.6675 56.1102C77.2719 67.4869 69.798 74.5094 58.4752 76.4299C50.074 77.8543 41.6697 77.8724 33.2826 76.3899C21.581 74.3213 14.5151 67.2315 12.2743 55.6024C10.4546 46.5557 10.6297 37.415 12.5063 28.3342V28.3344Z" fill="#344D67"/>
<path fill-rule="evenodd" clip-rule="evenodd" d="M45.5897 61.8146C40.748 61.8146 36.3286 60.0509 32.9143 57.1392C35.4251 52.3832 40.1641 50.4759 45.5897 50.4759C51.0152 50.4759 55.7543 52.3834 58.265 57.1392C54.8509 60.0509 50.4316 61.8146 45.5897 61.8146ZM45.5897 19.5C58.0478 19.5 68.1794 29.6671 68.1794 42.1686C68.1794 54.6703 58.0478 64.8371 45.5897 64.8371C39.1796 64.8371 33.3883 62.1428 29.2735 57.8264C29.3673 57.6412 30.696 54.9279 30.7025 54.9354C33.8046 49.7096 39.3104 47.4534 45.5897 47.4534C51.869 47.4534 57.3748 49.7096 60.4769 54.9354C63.4001 51.5035 65.1674 47.0474 65.1674 42.1686C65.1674 31.3004 56.42 22.5224 45.5897 22.5224C34.7595 22.5224 26.012 31.3004 26.012 42.1686C26.012 44.4541 26.3999 46.6468 27.1126 48.6846C26.192 49.1141 25.3062 49.6059 24.4403 50.1338C23.5103 47.6544 23 44.9704 23 42.1686C23 29.6671 33.1316 19.5 45.5897 19.5ZM39.8124 36.5116C39.8124 33.2822 42.4867 30.6536 45.8664 30.6536C49.2458 30.6536 51.9201 33.2822 51.9201 36.5116C51.9201 39.7411 49.2458 42.3697 45.8664 42.3697C42.4866 42.3697 39.8124 39.7411 39.8124 36.5116ZM54.5148 36.5116C54.5148 31.8325 50.6068 28.0499 45.8664 28.0499C41.1259 28.0499 37.2178 31.8325 37.2178 36.5116C37.2178 41.1909 41.1259 44.9734 45.8664 44.9734C50.6068 44.9734 54.5146 41.1909 54.5146 36.5116" fill="white"/>
<defs>
<filter id="filter0_dd_167_606" x="0" y="0.5" width="92" height="92" filterUnits="userSpaceOnUse" color-interpolation-filters="sRGB">
<feFlood flood-opacity="0" result="BackgroundImageFix"/>
<feColorMatrix in="SourceAlpha" type="matrix" values="0 0 0 0 0 0 0 0 0 0 0 0 0 0 0 0 0 0 127 0" result="hardAlpha"/>
<feOffset dy="5"/>
<feGaussianBlur stdDeviation="4"/>
<feColorMatrix type="matrix" values="0 0 0 0 0 0 0 0 0 0 0 0 0 0 0 0 0 0 0.078125 0"/>
<feBlend mode="normal" in2="BackgroundImageFix" result="effect1_dropShadow_167_606"/>
<feColorMatrix in="SourceAlpha" type="matrix" values="0 0 0 0 0 0 0 0 0 0 0 0 0 0 0 0 0 0 127 0" result="hardAlpha"/>
<feOffset dy="4"/>
<feGaussianBlur stdDeviation="5.5"/>
<feColorMatrix type="matrix" values="0 0 0 0 0 0 0 0 0 0 0 0 0 0 0 0 0 0 0.210824 0"/>
<feBlend mode="normal" in2="effect1_dropShadow_167_606" result="effect2_dropShadow_167_606"/>
<feBlend mode="normal" in="SourceGraphic" in2="effect2_dropShadow_167_606" result="shape"/>
</filter>
</defs>
</svg>
