<svg width="165" height="66" viewBox="0 0 165 66" fill="none" xmlns="http://www.w3.org/2000/svg">
<mask id="mask0_59_392" style="mask-type:luminance" maskUnits="userSpaceOnUse" x="0" y="0" width="79" height="66">
<path d="M0 0.5H78.5597V65.5H0V0.5Z" fill="white"/>
</mask>
<g mask="url(#mask0_59_392)">
<path d="M72.9477 6.87227H44.4744C44.4557 3.3548 41.9737 0.5 38.9226 0.5H5.61198C2.55051 0.5 0.0602112 3.3764 0.0602112 6.91308V28.4525C0.0602112 31.9892 2.55051 34.8656 5.61198 34.8656H7.26526V44.4384C7.26526 45.9054 8.29336 47.0939 9.56447 47.0939C9.57901 47.0939 9.59147 47.0939 9.60809 47.0939C9.62263 47.0939 9.63717 47.0939 9.65171 47.0939C10.2312 47.0939 10.8107 46.8442 11.2572 46.34L21.4261 34.868H26.4212V46.8658C26.4212 50.4025 28.9115 53.2789 31.973 53.2789H57.1336L67.3045 64.7485C67.7511 65.2527 68.3306 65.5048 68.91 65.5048C68.9246 65.5048 68.9391 65.5024 68.9537 65.5024C68.9682 65.5024 68.9807 65.5048 68.9973 65.5048C70.2663 65.5048 71.2965 64.3163 71.2965 62.8493V53.2765H72.9498C76.0112 53.2765 78.5015 50.4001 78.5015 46.8634V13.2878C78.4995 9.74867 76.0092 6.87227 72.9477 6.87227ZM72.9477 47.9679H68.9952C67.7262 47.9679 66.696 49.1564 66.696 50.6234V56.6427L59.6737 48.7242C59.6529 48.7002 59.6322 48.6786 59.6093 48.657C59.5802 48.6257 59.5491 48.5921 59.5159 48.5609C59.4868 48.5345 59.4535 48.5081 59.4245 48.4841C59.3933 48.4601 59.3642 48.4337 59.3352 48.4097C59.2998 48.3856 59.2666 48.3616 59.2334 48.34C59.2022 48.3184 59.1731 48.2968 59.142 48.28C59.1067 48.2584 59.0714 48.2392 59.0361 48.22C59.0028 48.2032 58.9717 48.184 58.9385 48.1696C58.9031 48.1527 58.8678 48.1383 58.8304 48.1239C58.7951 48.1095 58.7598 48.0951 58.7245 48.0831C58.6892 48.0711 58.6518 48.0591 58.6165 48.0495C58.5791 48.0399 58.5438 48.0303 58.5064 48.0207C58.467 48.0111 58.4296 48.0063 58.3881 47.9991C58.3527 47.9943 58.3195 47.9871 58.2842 47.9823C58.2385 47.9775 58.1928 47.9775 58.1471 47.9751C58.1201 47.9727 58.0973 47.9703 58.0703 47.9703H31.973C31.4455 47.9703 31.0197 47.4757 31.0197 46.8682V13.2878C31.0197 12.6779 31.4455 12.1857 31.973 12.1857H72.9477C73.4752 12.1857 73.9031 12.6803 73.9031 13.2878V46.8658C73.9031 47.4733 73.4732 47.9679 72.9477 47.9679Z" fill="#344D67"/>
</g>
<path d="M83.3015 32.5391H164.864V34.844H83.3015V32.5391Z" fill="#344D67"/>
<path d="M89.4404 31.1561L88.9357 26.0611H91.8289C95.7315 26.0611 98.2758 23.881 98.2758 19.7249C98.2758 15.4919 95.6671 13.4895 91.8517 13.415H83.9156V31.1561H89.4404ZM88.9357 20.9926H91.6752C92.4873 20.9926 93.2101 21.1703 93.2101 21.9818C93.2101 22.6661 92.6618 22.9686 91.6544 22.9686H88.9357V20.9926Z" fill="#344D67"/>
<path d="M105.617 27.5065H107.677L108.095 31.1561H114.957L109.74 13.415H103.513L98.2937 31.1561H105.202L105.617 27.5065ZM106.824 20.0802L107.349 25.5809H105.902L106.45 20.0802H106.824Z" fill="#344D67"/>
<path d="M121.971 31.1561C126.991 31.1561 130.127 28.0396 130.127 22.2603C130.127 16.5075 126.991 13.415 121.971 13.415H115.306V31.1561H121.971ZM122.627 20.8918C124.141 20.8918 125.105 21.348 125.105 22.2844C125.105 23.2231 124.141 23.6529 122.627 23.6529H120.326V20.8918H122.627Z" fill="#344D67"/>
<path d="M138.169 31.5354C142.664 31.5354 145.272 28.9015 145.272 24.1859V13.415H139.791L140.273 20.6133C140.406 22.5389 139.727 23.7802 138.169 23.7802C136.634 23.7802 135.955 22.5389 136.086 20.6133L136.57 13.415H131.087V24.1859C131.087 28.9519 133.718 31.5354 138.169 31.5354Z" fill="#344D67"/>
<path d="M153.076 31.1561L151.957 20.4092L152.308 20.3587L154.237 29.0024H156.451L158.404 20.3587L158.732 20.4092L157.614 31.1561H164.323L163.073 13.415H156.802L155.508 23.3504H155.18L153.909 13.415H147.616L146.388 31.1561H153.076Z" fill="#344D67"/>
<path d="M85.4288 41.7954L86.8578 39.3368C86.5296 39.3512 86.1869 39.404 85.8276 39.5C85.4725 39.5913 85.1671 39.6897 84.9138 39.7977C84.6583 39.9082 84.4277 40.009 84.2242 40.1051C84.0248 40.1963 83.8794 40.2635 83.7922 40.3068C83.7693 40.3068 83.7465 40.2972 83.7257 40.2779C83.7029 40.2587 83.6925 40.2371 83.6925 40.2107C83.6925 40.1867 83.7631 40.009 83.9085 39.6825C84.058 39.356 84.2284 39.0078 84.4236 38.6357C85.514 38.1891 86.4777 37.9634 87.3147 37.9634C88.2785 37.9634 88.9472 38.2011 89.3253 38.6741C89.4582 38.8421 89.56 39.0462 89.6327 39.2887C89.7033 39.5336 89.7407 39.7737 89.7407 40.009C89.7407 40.5541 89.643 41.0463 89.4499 41.4881C89.2546 41.925 88.9784 42.3044 88.6191 42.6309C88.2577 42.9575 87.8319 43.2072 87.3397 43.38C86.8516 43.5481 86.3178 43.6298 85.7362 43.6298C85.6303 43.6298 85.4205 43.6081 85.1048 43.5625L84.6811 44.4557C84.7247 44.5277 84.7476 44.5878 84.7476 44.6382C84.7476 44.7486 84.7247 44.8399 84.6811 44.9167C84.6188 45.0247 84.5357 45.1664 84.4319 45.3393C84.3322 45.5169 84.2616 45.637 84.2242 45.6946C84.191 45.7522 84.1515 45.8027 84.1079 45.8483C84.0622 45.8915 84.0186 45.9155 83.975 45.9155C83.8794 45.9155 83.8192 45.8819 83.7922 45.8195C83.7693 45.7546 83.759 45.6658 83.759 45.5506C83.759 45.3969 83.8254 45.1472 83.9583 44.8014C84.0954 44.4557 84.3031 43.9995 84.5814 43.4281C84.4319 43.3656 84.3156 43.2816 84.2325 43.1784C84.1536 43.0775 84.1162 42.9743 84.1162 42.871C84.1162 42.6477 84.2263 42.4389 84.4485 42.2468C84.6687 42.0547 84.9968 41.9058 85.4288 41.7954ZM85.919 41.9394L85.6532 42.4581C85.7695 42.4653 85.8712 42.4725 85.9606 42.4773C86.054 42.4845 86.1309 42.4869 86.1932 42.4869C86.7415 42.4869 87.215 42.4052 87.6138 42.2372C88.0126 42.0715 88.3283 41.8626 88.5609 41.6129C88.7977 41.3584 88.9701 41.1039 89.076 40.8542C89.1861 40.6045 89.2422 40.3932 89.2422 40.2203C89.2422 39.9898 89.1591 39.8074 88.9929 39.6729C88.8309 39.5384 88.5983 39.4496 88.2951 39.404C87.9898 39.3536 87.5993 39.3271 87.1237 39.3271C87.1278 39.3656 87.132 39.4136 87.132 39.4712C87.132 39.6585 87.0447 39.9034 86.8744 40.2107L86.0602 41.6897L86.675 41.6033C86.7249 41.6033 86.7498 41.6321 86.7498 41.6897C86.7498 41.7354 86.7083 41.7666 86.6252 41.7858L85.919 41.9394Z" fill="#344D67"/>
<path d="M91.7346 42.9384C91.2797 43.6299 90.9329 44.1245 90.6961 44.4174C90.4635 44.7055 90.2724 44.8496 90.1228 44.8496C90.0065 44.8496 89.8985 44.792 89.7988 44.6767C89.6991 44.5615 89.6202 44.4078 89.5662 44.2157C89.5101 44.0236 89.4831 43.8196 89.4831 43.6011C89.4831 43.4546 89.4935 43.3225 89.5164 43.2073C89.5434 43.0921 89.587 42.9672 89.6493 42.8327C89.7158 42.6935 89.8009 42.5422 89.9068 42.3814C90.0169 42.2157 90.1498 42.0308 90.3056 41.8243C90.3991 41.7043 90.4759 41.601 90.5382 41.517C90.6047 41.4282 90.667 41.3681 90.7293 41.3345C90.7896 41.3033 90.8893 41.2865 91.0284 41.2865C91.1281 41.2865 91.2216 41.3033 91.3109 41.3345C91.4043 41.3681 91.4521 41.3993 91.4521 41.4306C91.4521 41.4954 91.4043 41.613 91.3109 41.7859C91.2153 41.954 91.0658 42.1581 90.8623 42.4006C90.6629 42.6455 90.4261 42.8808 90.1561 43.1113C90.1 43.3225 90.073 43.4858 90.073 43.6011C90.073 43.7547 90.1228 43.8316 90.2225 43.8316C90.2599 43.8316 90.3243 43.7979 90.4136 43.7259C90.5009 43.6491 90.6483 43.505 90.8539 43.2937C91.0575 43.0824 91.2444 42.8976 91.4106 42.7367C91.531 42.6167 91.6723 42.4342 91.8343 42.1893C91.9942 41.9468 92.1251 41.7643 92.2248 41.6418C92.4574 41.3609 92.6152 41.1785 92.6983 41.0944C92.7814 41.0056 92.8603 40.96 92.9392 40.96C93.0161 40.96 93.0659 40.9888 93.0888 41.0464C93.1158 41.0992 93.1303 41.2073 93.1303 41.3729C93.1303 41.4498 93.1241 41.5122 93.1137 41.5554C93.1012 41.601 93.0763 41.6611 93.0389 41.7379C92.9995 41.8099 92.9185 41.9444 92.798 42.1413C92.6817 42.3405 92.5425 42.5782 92.3826 42.852C92.2933 42.9936 92.2164 43.1497 92.15 43.3225C92.0835 43.4906 92.0503 43.6179 92.0503 43.7067C92.0503 43.894 92.1126 43.9852 92.2414 43.9852C92.3452 43.9852 92.4678 43.9372 92.6069 43.8412C92.7502 43.7403 92.9662 43.5578 93.2549 43.2937V43.6491C92.8935 44.0405 92.6256 44.3262 92.4491 44.5038C92.2767 44.6767 92.1251 44.8088 91.9921 44.8976C91.8634 44.9888 91.745 45.0321 91.6349 45.0321C91.369 45.0321 91.2361 44.8544 91.2361 44.4942C91.2361 44.3598 91.2735 44.1773 91.3524 43.9468C91.4293 43.7115 91.556 43.3754 91.7346 42.9384Z" fill="#344D67"/>
<path d="M93.1989 43.4569V43.3224C94.0006 42.3428 94.5531 41.6585 94.8522 41.2672C94.9228 40.8254 95.0889 40.6045 95.3506 40.6045C95.4171 40.6045 95.4856 40.6237 95.5583 40.6621L95.5916 40.7678C95.5791 40.8134 95.5749 40.8734 95.5749 40.9502C95.5749 41.0223 95.5957 41.1495 95.6414 41.3344C95.685 41.5217 95.7183 41.6777 95.7411 41.805C95.7681 41.9274 95.7826 42.0691 95.7826 42.2276C95.7826 42.4653 95.7349 42.6934 95.6414 42.9095C95.5459 43.1279 95.4109 43.3368 95.2343 43.5337C95.0557 43.733 94.8272 43.9371 94.5448 44.1484C94.6611 44.1676 94.7483 44.1772 94.8106 44.1772C94.9373 44.1772 95.0765 44.1436 95.226 44.0715C95.3756 43.9947 95.5272 43.8963 95.683 43.7738C95.8366 43.6538 96.0173 43.4929 96.223 43.2936V43.649C95.8242 44.1052 95.4669 44.4461 95.1512 44.6766C94.8355 44.9071 94.5635 45.0223 94.3371 45.0223C94.0421 45.0223 93.7721 44.8783 93.5229 44.5902C93.3775 44.4173 93.2861 44.254 93.2487 44.1004C93.2155 43.9419 93.1989 43.7258 93.1989 43.4569ZM94.9435 42.6213L94.8522 41.8338C94.6632 42.0907 94.2498 42.5781 93.6143 43.2936C93.8012 43.3392 93.93 43.4041 93.9964 43.4857C94.0671 43.5625 94.1647 43.7138 94.2872 43.9371C94.5032 43.8362 94.6652 43.697 94.7774 43.5241C94.8937 43.3512 94.9519 43.1159 94.9519 42.8134C94.9519 42.775 94.9477 42.7438 94.9435 42.7174C94.9435 42.6862 94.9435 42.655 94.9435 42.6213Z" fill="#344D67"/>
<path d="M96.75 42.3332C97.2194 41.8338 97.6763 41.4664 98.1208 41.2287C98.5694 40.9862 98.9142 40.8638 99.1593 40.8638C99.2257 40.8638 99.286 40.8974 99.3421 40.9598C99.3961 41.0246 99.4417 41.0991 99.475 41.1807C99.5082 41.2647 99.5248 41.3248 99.5248 41.3632C99.5248 41.428 99.502 41.476 99.4584 41.5072C99.4127 41.5409 99.3379 41.5745 99.234 41.6129C99.2507 41.6705 99.2756 41.7449 99.3088 41.8338C99.3462 41.925 99.3753 41.997 99.3919 42.0547C99.4127 42.1123 99.4251 42.1651 99.4251 42.2083C99.4251 42.2924 99.3462 42.4532 99.1925 42.6885C99.043 42.9262 98.937 43.1015 98.8768 43.2168C98.8145 43.3272 98.7854 43.4617 98.7854 43.6201C98.7854 43.889 98.8893 44.0235 99.1011 44.0235C99.3213 44.0235 99.6661 43.7882 100.131 43.3128V43.6393C99.3379 44.6526 98.773 45.1568 98.4365 45.1568C98.3139 45.1568 98.2246 45.1111 98.1706 45.0223C98.1208 44.9335 98.0959 44.7966 98.0959 44.6093C98.0959 44.3284 98.1831 43.9178 98.3617 43.38C97.9069 43.9635 97.5683 44.3788 97.3482 44.6285C97.1259 44.8734 96.9452 44.9935 96.8081 44.9935C96.7354 44.9935 96.6461 44.9263 96.5423 44.7918C96.4426 44.6526 96.3512 44.4725 96.2681 44.254C96.1892 44.0379 96.1518 43.8098 96.1518 43.5721C96.1518 43.4064 96.1643 43.2696 96.1933 43.1591C96.2266 43.0439 96.2806 42.9262 96.3595 42.8038C96.4426 42.6837 96.5714 42.5253 96.75 42.3332ZM98.9848 41.7377C98.1748 42.1675 97.5995 42.5325 97.2568 42.8326C96.912 43.1351 96.7417 43.4424 96.7417 43.7546C96.7417 43.8698 96.7583 43.9659 96.7915 44.0427C96.8248 44.1147 96.8704 44.1483 96.9328 44.1483C96.966 44.1483 97.0262 44.1243 97.1155 44.0715C97.4416 43.8482 97.7407 43.5577 98.0128 43.1975C98.2828 42.8398 98.6068 42.3524 98.9848 41.7377Z" fill="#344D67"/>
<path d="M101.722 40.4988H101.929C102.089 40.1531 102.237 39.9106 102.37 39.7689C102.507 39.6296 102.663 39.5576 102.835 39.5576C103.005 39.5576 103.093 39.6032 103.093 39.6921C103.093 39.7377 103.022 39.8553 102.885 40.0474C102.752 40.2347 102.652 40.3932 102.586 40.5276C102.69 40.542 102.785 40.554 102.868 40.566C102.951 40.5732 103.014 40.5804 103.059 40.5852C102.881 40.9694 102.661 41.3608 102.395 41.7569C102.305 41.7521 102.231 41.7473 102.17 41.7473C102.114 41.7425 102.056 41.7353 101.996 41.7281C101.934 41.7233 101.859 41.7161 101.772 41.7089C101.605 42.0234 101.464 42.3044 101.348 42.5541C101.236 42.799 101.151 43.0223 101.09 43.2264C101.028 43.4328 100.999 43.6273 100.999 43.8122C100.999 44.0571 101.084 44.1772 101.257 44.1772C101.373 44.1772 101.524 44.1075 101.713 43.9659C101.907 43.8194 102.164 43.5961 102.486 43.2936V43.6489C101.643 44.7054 101.024 45.2336 100.625 45.2336C100.48 45.2336 100.363 45.1688 100.276 45.0415C100.193 44.9215 100.152 44.7606 100.152 44.5613C100.152 44.4269 100.176 44.2708 100.226 44.0907C100.276 43.9058 100.361 43.6273 100.484 43.2552C100.444 43.2936 100.403 43.3368 100.359 43.38C100.32 43.4184 100.284 43.4568 100.251 43.4953C100.222 43.5289 100.189 43.5625 100.152 43.6009C100.112 43.6393 100.073 43.6777 100.035 43.7162V43.3416C100.361 43.0295 100.758 42.4724 101.223 41.6705C101.178 41.6705 101.134 41.6705 101.09 41.6705C101.051 41.6657 101.003 41.6609 100.949 41.6609C100.766 41.6609 100.629 41.6777 100.542 41.7089C100.503 41.7233 100.467 41.7353 100.434 41.7473C100.401 41.7545 100.378 41.7569 100.368 41.7569C100.355 41.7569 100.351 41.7473 100.351 41.7281C100.351 41.6129 100.413 41.4352 100.542 41.1903C100.642 40.9934 100.735 40.8446 100.825 40.7485C100.918 40.6525 101.032 40.59 101.165 40.5564C101.298 40.518 101.483 40.4988 101.722 40.4988Z" fill="#344D67"/>
<path d="M109.252 42.7752C108.881 42.7896 108.606 42.7944 108.43 42.7944C108.164 42.7944 107.792 42.7896 107.317 42.7752C107.217 42.9048 107.094 43.0537 106.951 43.2266C106.812 43.3946 106.677 43.5507 106.544 43.6972C106.415 43.846 106.305 43.9709 106.212 44.0717C106.122 44.175 106.05 44.2614 105.996 44.331C105.647 44.7152 105.418 44.9697 105.314 45.0897C105.208 45.2098 105.1 45.3154 104.99 45.4067C104.874 45.5027 104.766 45.5507 104.666 45.5507C104.563 45.5507 104.509 45.4931 104.509 45.3779C104.509 45.2554 104.587 45.0633 104.741 44.8016C104.897 44.5399 105.071 44.3094 105.265 44.1101C105.464 43.906 105.624 43.8028 105.746 43.8028C105.784 43.8028 105.834 43.8196 105.896 43.8508L106.785 42.756C106.669 42.7367 106.519 42.7247 106.336 42.7175C106.158 42.7127 106.039 42.6983 105.979 42.6791C105.917 42.6551 105.888 42.5903 105.888 42.487C105.888 42.3334 106.029 42.0909 106.311 41.7571C106.471 41.5795 106.619 41.4642 106.752 41.4114C106.889 41.361 107.153 41.3322 107.541 41.325C107.312 41.3634 107.15 41.409 107.051 41.4594C106.955 41.505 106.905 41.5747 106.901 41.6707C106.988 41.6707 107.072 41.6707 107.15 41.6707C107.227 41.6707 107.327 41.6707 107.45 41.6707C107.57 41.6707 107.661 41.6683 107.724 41.6611C108.233 41.0849 108.696 40.5854 109.111 40.1629C109.531 39.7355 109.971 39.3273 110.432 38.9432C110.897 38.559 111.39 38.2085 111.911 37.8867C112.015 38.0404 112.069 38.2037 112.069 38.3765C112.069 38.5182 112.027 38.6815 111.944 38.8663C111.865 39.0464 111.697 39.3897 111.437 39.894C111.182 40.4006 110.924 40.9384 110.665 41.5074C110.748 41.5074 110.816 41.5122 110.872 41.517C110.933 41.517 110.997 41.517 111.063 41.517C111.24 41.517 111.348 41.5218 111.387 41.5266C111.425 41.5338 111.446 41.5723 111.446 41.6419C111.446 41.6683 111.421 41.7187 111.371 41.7956C111.325 41.8676 111.242 41.9876 111.122 42.1605C110.999 42.3334 110.881 42.5063 110.764 42.6791L110.075 42.7464C109.709 43.5411 109.527 43.9853 109.527 44.0813C109.527 44.2302 109.595 44.3022 109.734 44.3022C109.794 44.3022 110.062 44.1461 110.54 43.8316L110.507 44.1197C110.251 44.3454 110.052 44.5207 109.909 44.6479C109.77 44.7776 109.647 44.8832 109.543 44.9649C109.437 45.0465 109.34 45.1089 109.252 45.1474C109.169 45.1906 109.082 45.2146 108.995 45.2146C108.895 45.2146 108.795 45.1594 108.696 45.0513C108.596 44.9433 108.546 44.7872 108.546 44.5807C108.546 44.4991 108.571 44.379 108.621 44.2254C108.675 44.0717 108.733 43.9252 108.795 43.7836C108.856 43.6443 109.007 43.3082 109.252 42.7752ZM108.372 41.5555L109.884 41.517C110.06 41.1713 110.204 40.8904 110.316 40.6719C110.426 40.4558 110.548 40.2205 110.681 39.9708C110.814 39.7163 110.926 39.5002 111.022 39.3273C111.115 39.1496 111.221 38.948 111.338 38.7223C111.115 38.8831 110.885 39.0632 110.648 39.2601C110.415 39.4594 110.152 39.6995 109.859 39.9804C109.564 40.2565 109.304 40.5158 109.078 40.7583C108.849 40.996 108.615 41.2625 108.372 41.5555Z" fill="#344D67"/>
<path d="M113.375 43.3127C113.103 43.6729 112.856 43.9802 112.636 44.2347C112.42 44.4844 112.241 44.6741 112.104 44.8014C111.971 44.9238 111.88 44.9838 111.83 44.9838C111.751 44.9838 111.66 44.907 111.556 44.7533C111.456 44.5997 111.369 44.4076 111.298 44.1771C111.225 43.9418 111.19 43.7041 111.19 43.4664C111.19 43.1159 111.336 42.7629 111.63 42.41C111.923 42.0522 112.256 41.7569 112.627 41.5264C113.003 41.2911 113.286 41.171 113.475 41.171C113.624 41.171 113.774 41.2839 113.923 41.5072C114.16 40.9261 114.389 40.4099 114.605 39.9609C114.821 39.5143 114.999 39.1806 115.145 38.9621C115.294 38.7388 115.402 38.626 115.469 38.626C115.535 38.626 115.595 38.6644 115.651 38.7412C115.712 38.8181 115.743 38.9093 115.743 39.0101C115.743 39.1974 115.622 39.5167 115.386 39.9705C115.147 40.4267 114.912 40.8709 114.679 41.3055C114.451 41.7353 114.256 42.1603 114.09 42.5828C113.923 43.0006 113.84 43.3872 113.84 43.7449C113.84 44.0715 113.932 44.2347 114.115 44.2347C114.225 44.2347 114.36 44.1651 114.522 44.0234C114.688 43.877 114.922 43.6369 115.228 43.3031V43.6969C114.557 44.7029 114.04 45.2047 113.674 45.2047C113.529 45.2047 113.425 45.1375 113.359 45.003C113.296 44.8758 113.267 44.6837 113.267 44.4268C113.267 44.0811 113.302 43.7113 113.375 43.3127ZM113.724 41.997C113.446 42.1074 113.12 42.2803 112.744 42.5156C112.372 42.7533 112.148 42.9166 112.071 43.0054C111.998 43.0822 111.934 43.2215 111.88 43.4184C111.83 43.6177 111.805 43.7641 111.805 43.8602C111.805 43.925 111.817 43.9754 111.846 44.0138C111.88 44.0522 111.921 44.0715 111.971 44.0715C112.015 44.0715 112.065 44.0522 112.121 44.0138C112.175 43.9706 112.264 43.8842 112.386 43.7545C112.507 43.6273 112.588 43.548 112.627 43.5144C112.681 43.4568 112.798 43.3416 112.976 43.1687C113.159 42.991 113.292 42.8493 113.375 42.7461C113.462 42.6453 113.535 42.5324 113.591 42.41C113.651 42.2827 113.695 42.1458 113.724 41.997Z" fill="#344D67"/>
<path d="M117.433 42.9384C116.978 43.6299 116.631 44.1245 116.394 44.4174C116.161 44.7055 115.97 44.8496 115.821 44.8496C115.704 44.8496 115.596 44.792 115.497 44.6767C115.397 44.5615 115.318 44.4078 115.264 44.2157C115.208 44.0236 115.181 43.8196 115.181 43.6011C115.181 43.4546 115.191 43.3225 115.214 43.2073C115.241 43.0921 115.285 42.9672 115.347 42.8327C115.414 42.6935 115.499 42.5422 115.605 42.3814C115.715 42.2157 115.848 42.0308 116.004 41.8243C116.097 41.7043 116.174 41.601 116.236 41.517C116.303 41.4282 116.365 41.3681 116.427 41.3345C116.487 41.3033 116.587 41.2865 116.726 41.2865C116.826 41.2865 116.919 41.3033 117.009 41.3345C117.102 41.3681 117.15 41.3993 117.15 41.4306C117.15 41.4954 117.102 41.613 117.009 41.7859C116.913 41.954 116.764 42.1581 116.56 42.4006C116.361 42.6455 116.124 42.8808 115.854 43.1113C115.798 43.3225 115.771 43.4858 115.771 43.6011C115.771 43.7547 115.821 43.8316 115.92 43.8316C115.958 43.8316 116.022 43.7979 116.112 43.7259C116.199 43.6491 116.346 43.505 116.552 43.2937C116.755 43.0824 116.942 42.8976 117.108 42.7367C117.229 42.6167 117.37 42.4342 117.532 42.1893C117.692 41.9468 117.823 41.7643 117.923 41.6418C118.155 41.3609 118.313 41.1785 118.396 41.0944C118.479 41.0056 118.558 40.96 118.637 40.96C118.714 40.96 118.764 40.9888 118.787 41.0464C118.814 41.0992 118.828 41.2073 118.828 41.3729C118.828 41.4498 118.822 41.5122 118.812 41.5554C118.799 41.601 118.774 41.6611 118.737 41.7379C118.697 41.8099 118.616 41.9444 118.496 42.1413C118.38 42.3405 118.24 42.5782 118.081 42.852C117.991 42.9936 117.914 43.1497 117.848 43.3225C117.781 43.4906 117.748 43.6179 117.748 43.7067C117.748 43.894 117.811 43.9852 117.939 43.9852C118.043 43.9852 118.166 43.9372 118.305 43.8412C118.448 43.7403 118.664 43.5578 118.953 43.2937V43.6491C118.591 44.0405 118.324 44.3262 118.147 44.5038C117.975 44.6767 117.823 44.8088 117.69 44.8976C117.561 44.9888 117.443 45.0321 117.333 45.0321C117.067 45.0321 116.934 44.8544 116.934 44.4942C116.934 44.3598 116.971 44.1773 117.05 43.9468C117.127 43.7115 117.254 43.3754 117.433 42.9384Z" fill="#344D67"/>
<path d="M119.462 42.3332C119.931 41.8338 120.388 41.4664 120.833 41.2287C121.281 40.9862 121.626 40.8638 121.871 40.8638C121.938 40.8638 121.998 40.8974 122.054 40.9598C122.108 41.0246 122.154 41.0991 122.187 41.1807C122.22 41.2647 122.237 41.3248 122.237 41.3632C122.237 41.428 122.214 41.476 122.17 41.5072C122.124 41.5409 122.05 41.5745 121.946 41.6129C121.962 41.6705 121.987 41.7449 122.021 41.8338C122.058 41.925 122.087 41.997 122.104 42.0547C122.124 42.1123 122.137 42.1651 122.137 42.2083C122.137 42.2924 122.058 42.4532 121.904 42.6885C121.755 42.9262 121.649 43.1015 121.589 43.2168C121.526 43.3272 121.497 43.4617 121.497 43.6201C121.497 43.889 121.601 44.0235 121.813 44.0235C122.033 44.0235 122.378 43.7882 122.843 43.3128V43.6393C122.05 44.6526 121.485 45.1568 121.148 45.1568C121.026 45.1568 120.936 45.1111 120.882 45.0223C120.833 44.9335 120.808 44.7966 120.808 44.6093C120.808 44.3284 120.895 43.9178 121.073 43.38C120.619 43.9635 120.28 44.3788 120.06 44.6285C119.838 44.8734 119.657 44.9935 119.52 44.9935C119.447 44.9935 119.358 44.9263 119.254 44.7918C119.154 44.6526 119.063 44.4725 118.98 44.254C118.901 44.0379 118.864 43.8098 118.864 43.5721C118.864 43.4064 118.876 43.2696 118.905 43.1591C118.938 43.0439 118.992 42.9262 119.071 42.8038C119.154 42.6837 119.283 42.5253 119.462 42.3332ZM121.697 41.7377C120.887 42.1675 120.311 42.5325 119.969 42.8326C119.624 43.1351 119.453 43.4424 119.453 43.7546C119.453 43.8698 119.47 43.9659 119.503 44.0427C119.537 44.1147 119.582 44.1483 119.645 44.1483C119.678 44.1483 119.738 44.1243 119.827 44.0715C120.153 43.8482 120.452 43.5577 120.725 43.1975C120.995 42.8398 121.319 42.3524 121.697 41.7377Z" fill="#344D67"/>
<path d="M125.946 42.3235C125.397 43.0294 125.123 43.5216 125.123 43.8026C125.123 43.9562 125.177 44.0331 125.289 44.0331C125.376 44.0331 125.493 43.9802 125.638 43.8698C125.781 43.7545 126.008 43.5601 126.319 43.2839V43.6489C125.875 44.1555 125.534 44.5205 125.298 44.7437C125.065 44.9694 124.874 45.0799 124.724 45.0799C124.469 45.0799 124.342 44.8854 124.342 44.494C124.342 44.3788 124.355 44.2683 124.384 44.1579C124.417 44.0427 124.461 43.9274 124.517 43.8122C124.571 43.6921 124.654 43.5192 124.766 43.2935C124.876 43.063 125.007 42.8085 125.156 42.5252C124.974 42.6285 124.749 42.8325 124.483 43.1399C124.311 43.3392 124.164 43.524 124.043 43.6969C123.921 43.8698 123.79 44.0667 123.653 44.2828C123.513 44.494 123.412 44.6381 123.345 44.7149C123.283 44.787 123.221 44.8206 123.154 44.8206C123.054 44.8206 122.959 44.7029 122.872 44.4652C122.789 44.2227 122.747 43.9418 122.747 43.6201C122.747 43.4232 122.766 43.2695 122.805 43.1591C122.843 43.0438 122.921 42.8854 123.038 42.6789C123.254 42.2947 123.439 42.0162 123.594 41.8433C123.748 41.6657 123.898 41.5744 124.043 41.5744C124.143 41.5744 124.222 41.5936 124.284 41.632C124.344 41.6705 124.375 41.7329 124.375 41.8145C124.375 41.8529 124.363 41.8914 124.342 41.9298C124.326 41.9682 124.305 42.0042 124.284 42.0354C124.261 42.069 124.211 42.1315 124.134 42.2275C123.646 42.8566 123.403 43.2647 123.403 43.4568C123.403 43.5601 123.43 43.6105 123.486 43.6105C123.524 43.6105 123.597 43.5432 123.702 43.4088C123.813 43.2695 123.952 43.0871 124.118 42.8614C124.288 42.6309 124.492 42.3956 124.724 42.1507C124.957 41.9082 125.219 41.6705 125.514 41.44C125.68 41.3055 125.817 41.2383 125.929 41.2383C125.979 41.2383 126.024 41.3199 126.07 41.4784C126.12 41.6392 126.145 41.8001 126.145 41.9586C126.145 42.0426 126.079 42.1651 125.946 42.3235Z" fill="#344D67"/>
<path d="M136.988 43.284V43.649C136.689 43.9707 136.434 44.23 136.224 44.4269C136.018 44.6262 135.813 44.8063 135.609 44.9647C135.404 45.1184 135.231 45.2264 135.094 45.2913C134.961 45.3609 134.847 45.3969 134.754 45.3969C134.521 45.3969 134.33 45.2961 134.18 45.0992C134.035 44.9023 133.964 44.6454 133.964 44.3309C133.964 43.9659 134.027 43.6082 134.155 43.2552C134.282 42.9047 134.463 42.5421 134.695 42.17C134.928 41.793 135.221 41.368 135.576 40.8926C135.836 40.5469 135.966 40.3548 135.966 40.3164C135.966 40.2924 135.958 40.2684 135.942 40.2491C135.925 40.2299 135.908 40.2203 135.892 40.2203C135.829 40.2203 135.647 40.374 135.343 40.6813C135.038 40.9839 134.646 41.428 134.164 42.0163C133.686 42.5997 133.171 43.2984 132.618 44.11C132.589 44.1484 132.49 44.2972 132.319 44.5517C132.153 44.8015 132.037 44.9623 131.97 45.032C131.904 45.1088 131.846 45.1472 131.796 45.1472C131.707 45.1472 131.63 45.0464 131.563 44.8495C131.501 44.6454 131.472 44.4269 131.472 44.1964C131.472 44.0571 131.509 43.9059 131.588 43.745C131.671 43.5793 131.846 43.2888 132.112 42.871C132.377 42.4485 132.596 42.0931 132.768 41.805C132.944 41.5169 133.136 41.1687 133.341 40.7582C133.491 40.47 133.599 40.2443 133.665 40.0763C133.736 39.9106 133.773 39.7593 133.773 39.6249C133.773 39.5168 133.744 39.4616 133.69 39.4616C133.574 39.4616 133.352 39.6441 133.025 40.009C132.697 40.374 132.294 40.919 131.813 41.6417C131.331 42.3596 130.826 43.1928 130.3 44.1388C130.128 44.4653 130.006 44.6838 129.935 44.7919C129.862 44.9023 129.785 44.9551 129.702 44.9551C129.59 44.9551 129.488 44.8255 129.395 44.5614C129.299 44.2924 129.254 44.0764 129.254 43.9083C129.254 43.8507 129.27 43.7906 129.304 43.7258C129.719 43.0919 130.055 42.5541 130.317 42.1123C130.583 41.6705 130.818 41.2528 131.023 40.8542C131.233 40.458 131.383 40.1315 131.472 39.8746C131.565 39.6129 131.613 39.4088 131.613 39.2599C131.613 39.1063 131.551 39.0294 131.43 39.0294C131.331 39.0294 131.16 39.1039 130.924 39.2503C130.685 39.3992 130.384 39.6009 130.018 39.8554C129.652 40.1123 129.358 40.3068 129.137 40.4412C128.915 40.5757 128.751 40.6429 128.639 40.6429C128.535 40.6429 128.481 40.5757 128.481 40.4412C128.481 40.3644 128.504 40.1915 128.548 39.9226C128.593 39.6489 128.639 39.4568 128.689 39.3464C128.751 39.2071 128.915 39.0174 129.187 38.7797C129.457 38.5372 129.607 38.4148 129.636 38.4148C129.657 38.4148 129.669 38.4292 129.669 38.4532C129.669 38.4676 129.657 38.4892 129.636 38.5204C129.507 38.6429 129.412 38.7413 129.345 38.8182C129.283 38.8902 129.245 38.9694 129.229 39.0583C129.798 38.6621 130.309 38.362 130.757 38.1555C131.21 37.9514 131.524 37.8481 131.696 37.8481C131.783 37.8481 131.867 37.9154 131.945 38.0498C132.022 38.1843 132.089 38.3428 132.145 38.5204C132.199 38.7005 132.228 38.8133 132.228 38.8566C132.228 39.0438 132.186 39.2599 132.103 39.5096C132.024 39.7593 131.916 40.0523 131.779 40.3836C131.64 40.7173 131.468 41.1303 131.264 41.6225C131.424 41.3872 131.576 41.1663 131.721 40.9598C131.871 40.7558 132.016 40.5565 132.161 40.3644C132.305 40.1675 132.452 39.9682 132.602 39.7689C132.805 39.5 133.034 39.2455 133.283 39.0006C133.536 38.7509 133.773 38.5492 133.989 38.3956C134.209 38.2371 134.359 38.1555 134.438 38.1555C134.548 38.1555 134.646 38.2275 134.729 38.3668C134.816 38.5012 134.862 38.6501 134.862 38.8085C134.862 38.9118 134.799 39.1111 134.679 39.404C134.562 39.6993 134.39 40.0763 134.164 40.5373C133.935 40.9983 133.634 41.5937 133.258 42.3236C133.611 41.889 133.981 41.44 134.363 40.9791C134.749 40.5181 135.036 40.1819 135.219 39.9706C135.406 39.7593 135.564 39.5961 135.692 39.4808C135.863 39.3272 136.035 39.1639 136.207 38.991C136.378 38.8182 136.515 38.6813 136.615 38.578C136.714 38.4772 136.801 38.4004 136.88 38.3476C136.957 38.2971 137.03 38.2707 137.096 38.2707C137.179 38.2707 137.281 38.3812 137.404 38.5973C137.524 38.8085 137.587 38.9478 137.587 39.0102C137.587 39.0823 137.549 39.1711 137.479 39.2791C137.406 39.3824 137.254 39.5745 137.022 39.8554C136.6 40.3884 136.232 40.9214 135.917 41.4593C135.605 41.9923 135.37 42.4773 135.21 42.9191C135.048 43.356 134.97 43.7018 134.97 43.9563C134.97 44.1172 134.994 44.2348 135.044 44.3116C135.098 44.3837 135.179 44.4173 135.285 44.4173C135.385 44.4173 135.476 44.3957 135.559 44.3501C135.647 44.3068 135.744 44.2444 135.85 44.1676C135.954 44.086 136.054 44.0091 136.149 43.9371C136.282 43.8483 136.409 43.7522 136.531 43.649C136.658 43.5481 136.756 43.4665 136.822 43.4089C136.893 43.3464 136.949 43.3032 136.988 43.284Z" fill="#344D67"/>
<path d="M137.5 42.3332C137.97 41.8338 138.427 41.4664 138.871 41.2287C139.32 40.9862 139.665 40.8638 139.91 40.8638C139.976 40.8638 140.036 40.8974 140.092 40.9598C140.146 41.0246 140.192 41.0991 140.225 41.1807C140.259 41.2647 140.275 41.3248 140.275 41.3632C140.275 41.428 140.252 41.476 140.209 41.5072C140.163 41.5409 140.088 41.5745 139.984 41.6129C140.001 41.6705 140.026 41.7449 140.059 41.8338C140.097 41.925 140.126 41.997 140.142 42.0547C140.163 42.1123 140.175 42.1651 140.175 42.2083C140.175 42.2924 140.097 42.4532 139.943 42.6885C139.793 42.9262 139.687 43.1015 139.627 43.2168C139.565 43.3272 139.536 43.4617 139.536 43.6201C139.536 43.889 139.64 44.0235 139.851 44.0235C140.072 44.0235 140.416 43.7882 140.882 43.3128V43.6393C140.088 44.6526 139.523 45.1568 139.187 45.1568C139.064 45.1568 138.975 45.1111 138.921 45.0223C138.871 44.9335 138.846 44.7966 138.846 44.6093C138.846 44.3284 138.933 43.9178 139.112 43.38C138.657 43.9635 138.319 44.3788 138.099 44.6285C137.876 44.8734 137.696 44.9935 137.558 44.9935C137.486 44.9935 137.396 44.9263 137.293 44.7918C137.193 44.6526 137.102 44.4725 137.018 44.254C136.94 44.0379 136.902 43.8098 136.902 43.5721C136.902 43.4064 136.915 43.2696 136.944 43.1591C136.977 43.0439 137.031 42.9262 137.11 42.8038C137.193 42.6837 137.322 42.5253 137.5 42.3332ZM139.735 41.7377C138.925 42.1675 138.35 42.5325 138.007 42.8326C137.662 43.1351 137.492 43.4424 137.492 43.7546C137.492 43.8698 137.509 43.9659 137.542 44.0427C137.575 44.1147 137.621 44.1483 137.683 44.1483C137.716 44.1483 137.777 44.1243 137.866 44.0715C138.192 43.8482 138.491 43.5577 138.763 43.1975C139.033 42.8398 139.357 42.3524 139.735 41.7377Z" fill="#344D67"/>
<path d="M144.333 43.303V43.6392C144.061 43.9609 143.826 44.2226 143.627 44.4267C143.428 44.6332 143.253 44.7892 143.104 44.8973C142.958 45.0005 142.834 45.0509 142.73 45.0509C142.491 45.0509 142.372 44.8853 142.372 44.5515C142.372 44.2826 142.447 43.9729 142.597 43.6199C142.746 43.2694 142.962 42.8564 143.245 42.381C143.106 42.4723 142.973 42.5779 142.846 42.698C142.723 42.8132 142.613 42.9357 142.514 43.0629C142.418 43.1926 142.339 43.3006 142.273 43.3894C142.073 43.6536 141.878 43.9225 141.691 44.1962C141.502 44.4723 141.375 44.6524 141.309 44.734C141.247 44.818 141.186 44.8589 141.126 44.8589C140.881 44.8589 140.761 44.5131 140.761 43.8216C140.761 43.5911 140.788 43.3414 140.844 43.0725C140.904 42.7988 141.064 42.4363 141.326 41.9873C141.874 41.0413 142.341 40.2681 142.73 39.6727C143.116 39.0724 143.438 38.6163 143.693 38.3089C143.947 38.0016 144.119 37.8527 144.208 37.8575C144.312 37.8647 144.4 37.8911 144.466 37.9344C144.532 37.9728 144.566 38.0184 144.566 38.0688C144.566 38.1601 144.512 38.3065 144.408 38.5106C144.302 38.7171 144.117 39.0388 143.851 39.4806C143.569 39.9488 143.365 40.2777 143.245 40.4698C143.128 40.6571 142.954 40.9212 142.721 41.267C142.489 41.6127 142.273 41.9248 142.073 42.1986C141.878 42.4675 141.658 42.7628 141.409 43.0821V43.7256C141.828 43.1878 142.192 42.7508 142.497 42.4098C142.8 42.0713 143.058 41.8144 143.27 41.6415C143.479 41.4638 143.635 41.3726 143.735 41.3726C143.828 41.3726 143.914 41.4374 143.992 41.5647C144.076 41.6943 144.117 41.8 144.117 41.8816C144.117 41.9152 144.103 41.9585 144.076 42.0161C143.847 42.3234 143.668 42.5803 143.536 42.7844C143.407 42.9909 143.307 43.1734 143.236 43.3318C143.164 43.4927 143.128 43.6295 143.128 43.7448C143.128 43.9129 143.197 43.9945 143.336 43.9945C143.486 43.9945 143.818 43.764 144.333 43.303Z" fill="#344D67"/>
<path d="M144.879 42.3332C145.349 41.8338 145.806 41.4664 146.25 41.2287C146.699 40.9862 147.044 40.8638 147.289 40.8638C147.355 40.8638 147.415 40.8974 147.471 40.9598C147.525 41.0246 147.571 41.0991 147.604 41.1807C147.638 41.2647 147.654 41.3248 147.654 41.3632C147.654 41.428 147.631 41.476 147.588 41.5072C147.542 41.5409 147.467 41.5745 147.363 41.6129C147.38 41.6705 147.405 41.7449 147.438 41.8338C147.476 41.925 147.505 41.997 147.521 42.0547C147.542 42.1123 147.554 42.1651 147.554 42.2083C147.554 42.2924 147.476 42.4532 147.322 42.6885C147.172 42.9262 147.066 43.1015 147.006 43.2168C146.944 43.3272 146.915 43.4617 146.915 43.6201C146.915 43.889 147.019 44.0235 147.23 44.0235C147.451 44.0235 147.795 43.7882 148.261 43.3128V43.6393C147.467 44.6526 146.902 45.1568 146.566 45.1568C146.443 45.1568 146.354 45.1111 146.3 45.0223C146.25 44.9335 146.225 44.7966 146.225 44.6093C146.225 44.3284 146.312 43.9178 146.491 43.38C146.036 43.9635 145.698 44.3788 145.477 44.6285C145.255 44.8734 145.075 44.9935 144.937 44.9935C144.865 44.9935 144.775 44.9263 144.672 44.7918C144.572 44.6526 144.481 44.4725 144.397 44.254C144.319 44.0379 144.281 43.8098 144.281 43.5721C144.281 43.4064 144.294 43.2696 144.323 43.1591C144.356 43.0439 144.41 42.9262 144.489 42.8038C144.572 42.6837 144.701 42.5253 144.879 42.3332ZM147.114 41.7377C146.304 42.1675 145.729 42.5325 145.386 42.8326C145.041 43.1351 144.871 43.4424 144.871 43.7546C144.871 43.8698 144.888 43.9659 144.921 44.0427C144.954 44.1147 145 44.1483 145.062 44.1483C145.095 44.1483 145.156 44.1243 145.245 44.0715C145.571 43.8482 145.87 43.5577 146.142 43.1975C146.412 42.8398 146.736 42.3524 147.114 41.7377Z" fill="#344D67"/>
<path d="M148.198 43.4569V43.3224C149 42.3428 149.552 41.6585 149.851 41.2672C149.922 40.8254 150.088 40.6045 150.35 40.6045C150.416 40.6045 150.485 40.6237 150.557 40.6621L150.591 40.7678C150.578 40.8134 150.574 40.8734 150.574 40.9502C150.574 41.0223 150.595 41.1495 150.64 41.3344C150.684 41.5217 150.717 41.6777 150.74 41.805C150.767 41.9274 150.782 42.0691 150.782 42.2276C150.782 42.4653 150.734 42.6934 150.64 42.9095C150.545 43.1279 150.41 43.3368 150.233 43.5337C150.055 43.733 149.826 43.9371 149.544 44.1484C149.66 44.1676 149.747 44.1772 149.81 44.1772C149.936 44.1772 150.075 44.1436 150.225 44.0715C150.375 43.9947 150.526 43.8963 150.682 43.7738C150.836 43.6538 151.016 43.4929 151.222 43.2936V43.649C150.823 44.1052 150.466 44.4461 150.15 44.6766C149.835 44.9071 149.562 45.0223 149.336 45.0223C149.041 45.0223 148.771 44.8783 148.522 44.5902C148.376 44.4173 148.285 44.254 148.248 44.1004C148.214 43.9419 148.198 43.7258 148.198 43.4569ZM149.943 42.6213L149.851 41.8338C149.662 42.0907 149.249 42.5781 148.613 43.2936C148.8 43.3392 148.929 43.4041 148.995 43.4857C149.066 43.5625 149.164 43.7138 149.286 43.9371C149.502 43.8362 149.664 43.697 149.776 43.5241C149.893 43.3512 149.951 43.1159 149.951 42.8134C149.951 42.775 149.947 42.7438 149.943 42.7174C149.943 42.6862 149.943 42.655 149.943 42.6213Z" fill="#344D67"/>
<path d="M153.12 40.883C153.041 40.883 152.966 40.8517 152.895 40.7869C152.823 40.7173 152.787 40.6308 152.787 40.5276C152.787 40.3691 152.854 40.1915 152.987 39.9994C153.12 39.8025 153.255 39.7017 153.394 39.7017C153.487 39.7017 153.564 39.7377 153.627 39.8073C153.687 39.8721 153.718 39.9682 153.718 40.0954C153.718 40.2491 153.654 40.4196 153.527 40.6044C153.398 40.7917 153.263 40.883 153.12 40.883ZM153.435 43.3032V43.6969C153.13 44.1459 152.848 44.4845 152.588 44.715C152.326 44.9455 152.106 45.0607 151.923 45.0607C151.668 45.0607 151.477 44.907 151.35 44.5997C151.228 44.2876 151.167 43.9442 151.167 43.5721C151.167 43.4376 151.178 43.308 151.201 43.1783C151.228 43.0511 151.259 42.9454 151.292 42.8614C151.325 42.7797 151.388 42.6477 151.483 42.4676C151.925 41.6753 152.33 41.2767 152.696 41.2767C152.883 41.2767 152.979 41.3608 152.979 41.5264C152.979 41.6417 152.916 41.8241 152.796 42.0739C152.673 42.3188 152.563 42.4916 152.463 42.5925C152.198 42.895 152.023 43.1063 151.94 43.2263C151.857 43.3416 151.815 43.476 151.815 43.6297C151.815 43.7594 151.857 43.8674 151.94 43.9562C152.023 44.0403 152.131 44.0811 152.264 44.0811C152.414 44.0811 152.573 44.0211 152.746 43.8986C152.922 43.7786 153.153 43.5793 153.435 43.3032Z" fill="#344D67"/>
<path d="M153.376 43.4569V43.3224C154.177 42.3428 154.73 41.6585 155.029 41.2672C155.1 40.8254 155.266 40.6045 155.528 40.6045C155.594 40.6045 155.663 40.6237 155.735 40.6621L155.768 40.7678C155.756 40.8134 155.752 40.8734 155.752 40.9502C155.752 41.0223 155.773 41.1495 155.818 41.3344C155.862 41.5217 155.895 41.6777 155.918 41.805C155.945 41.9274 155.96 42.0691 155.96 42.2276C155.96 42.4653 155.912 42.6934 155.818 42.9095C155.723 43.1279 155.588 43.3368 155.411 43.5337C155.233 43.733 155.004 43.9371 154.722 44.1484C154.838 44.1676 154.925 44.1772 154.987 44.1772C155.114 44.1772 155.253 44.1436 155.403 44.0715C155.552 43.9947 155.704 43.8963 155.86 43.7738C156.014 43.6538 156.194 43.4929 156.4 43.2936V43.649C156.001 44.1052 155.644 44.4461 155.328 44.6766C155.012 44.9071 154.74 45.0223 154.514 45.0223C154.219 45.0223 153.949 44.8783 153.7 44.5902C153.554 44.4173 153.463 44.254 153.426 44.1004C153.392 43.9419 153.376 43.7258 153.376 43.4569ZM155.12 42.6213L155.029 41.8338C154.84 42.0907 154.427 42.5781 153.791 43.2936C153.978 43.3392 154.107 43.4041 154.173 43.4857C154.244 43.5625 154.342 43.7138 154.464 43.9371C154.68 43.8362 154.842 43.697 154.954 43.5241C155.071 43.3512 155.129 43.1159 155.129 42.8134C155.129 42.775 155.125 42.7438 155.12 42.7174C155.12 42.6862 155.12 42.655 155.12 42.6213Z" fill="#344D67"/>
<path d="M158.821 43.9372C158.821 44.0981 158.873 44.1773 158.979 44.1773C159.116 44.1773 159.357 43.9132 159.702 43.3802C159.689 43.2793 159.685 43.2121 159.685 43.1785C159.685 42.9816 159.752 42.7439 159.884 42.4678C160.017 42.1869 160.169 41.9396 160.341 41.7283C160.518 41.517 160.651 41.4113 160.74 41.4113C160.85 41.4113 160.906 41.565 160.906 41.8723C160.906 42.122 160.859 42.3693 160.765 42.6118C160.676 42.8495 160.543 43.092 160.366 43.3417C160.393 43.3754 160.424 43.409 160.458 43.4474C160.495 43.481 160.535 43.5098 160.574 43.5338C160.611 43.553 160.653 43.5626 160.699 43.5626C160.798 43.5626 160.927 43.4714 161.089 43.2841V43.6587C160.844 43.9612 160.632 44.1101 160.449 44.1101C160.343 44.1101 160.26 44.0957 160.2 44.062C160.138 44.0308 160.061 43.9756 159.968 43.8988C159.396 44.6935 158.962 45.0897 158.663 45.0897C158.547 45.0897 158.456 45.0417 158.389 44.9456C158.323 44.8448 158.289 44.7031 158.289 44.523C158.289 44.4414 158.318 44.1173 158.381 43.553C158.258 43.7211 158.115 43.9132 157.949 44.1293C157.787 44.3478 157.658 44.5182 157.558 44.6383C157.459 44.7535 157.363 44.8448 157.276 44.9072C157.193 44.972 157.11 45.0032 157.027 45.0032C156.937 45.0032 156.835 44.9432 156.719 44.8208C156.603 44.7007 156.503 44.5374 156.42 44.331C156.341 44.1269 156.304 43.9084 156.304 43.6779C156.304 43.4474 156.331 43.2529 156.387 43.092C156.441 42.9336 156.57 42.6887 156.769 42.3621C156.952 42.074 157.112 41.8411 157.251 41.661C157.394 41.4762 157.521 41.3321 157.633 41.2289C157.749 41.128 157.843 41.0752 157.915 41.0752C157.953 41.0752 158.009 41.0896 158.082 41.1136C158.152 41.1328 158.215 41.1664 158.264 41.2097C158.318 41.2481 158.348 41.2865 158.348 41.3249C158.348 41.4666 158.294 41.6418 158.19 41.8531C158.09 42.0596 157.934 42.2925 157.724 42.5542C157.519 42.8111 157.286 43.0728 157.027 43.3417C156.954 43.5914 156.919 43.7931 156.919 43.9468C156.919 43.9996 156.929 44.0476 156.952 44.0909C156.979 44.1365 157.012 44.1581 157.051 44.1581C157.178 44.1581 157.421 43.9276 157.783 43.4666C158.148 43.0056 158.63 42.3093 159.228 41.3729C159.249 41.3345 159.295 41.3153 159.361 41.3153C159.444 41.3153 159.515 41.3393 159.577 41.3825C159.644 41.4209 159.677 41.4738 159.677 41.5362C159.677 41.5818 159.594 41.7955 159.428 42.1797C159.266 42.559 159.124 42.9072 159.004 43.2265C158.881 43.541 158.821 43.7787 158.821 43.9372Z" fill="#344D67"/>
<path d="M161.619 42.3332C162.088 41.8338 162.545 41.4664 162.99 41.2287C163.438 40.9862 163.783 40.8638 164.028 40.8638C164.095 40.8638 164.155 40.8974 164.211 40.9598C164.265 41.0246 164.311 41.0991 164.344 41.1807C164.377 41.2647 164.394 41.3248 164.394 41.3632C164.394 41.428 164.371 41.476 164.327 41.5072C164.281 41.5409 164.207 41.5745 164.103 41.6129C164.119 41.6705 164.144 41.7449 164.178 41.8338C164.215 41.925 164.244 41.997 164.261 42.0547C164.281 42.1123 164.294 42.1651 164.294 42.2083C164.294 42.2924 164.215 42.4532 164.061 42.6885C163.912 42.9262 163.806 43.1015 163.746 43.2168C163.683 43.3272 163.654 43.4617 163.654 43.6201C163.654 43.889 163.758 44.0235 163.97 44.0235C164.19 44.0235 164.535 43.7882 165 43.3128V43.6393C164.207 44.6526 163.642 45.1568 163.305 45.1568C163.183 45.1568 163.093 45.1111 163.039 45.0223C162.99 44.9335 162.965 44.7966 162.965 44.6093C162.965 44.3284 163.052 43.9178 163.23 43.38C162.776 43.9635 162.437 44.3788 162.217 44.6285C161.995 44.8734 161.814 44.9935 161.677 44.9935C161.604 44.9935 161.515 44.9263 161.411 44.7918C161.311 44.6526 161.22 44.4725 161.137 44.254C161.058 44.0379 161.021 43.8098 161.021 43.5721C161.021 43.4064 161.033 43.2696 161.062 43.1591C161.095 43.0439 161.149 42.9262 161.228 42.8038C161.311 42.6837 161.44 42.5253 161.619 42.3332ZM163.854 41.7377C163.044 42.1675 162.468 42.5325 162.126 42.8326C161.781 43.1351 161.61 43.4424 161.61 43.7546C161.61 43.8698 161.627 43.9659 161.66 44.0427C161.694 44.1147 161.739 44.1483 161.802 44.1483C161.835 44.1483 161.895 44.1243 161.984 44.0715C162.31 43.8482 162.609 43.5577 162.882 43.1975C163.152 42.8398 163.476 42.3524 163.854 41.7377Z" fill="#344D67"/>
</svg>
