<svg width="51" height="51" viewBox="0 0 51 51" fill="none" xmlns="http://www.w3.org/2000/svg">
<path d="M13.1788 50.3226C11.2449 50.301 9.32909 49.9463 7.51562 49.274C6.19134 48.7845 4.9932 48.0052 4.00879 46.9932C2.99398 46.0107 2.21355 44.8123 1.72548 43.4868C1.0538 41.6734 0.699597 39.7578 0.67843 37.8241C0.529902 34.6095 0.5 33.6453 0.5 25.4998C0.5 17.3542 0.532843 16.3935 0.676959 13.1763C0.700695 11.2434 1.05533 9.32882 1.72548 7.51562C2.21593 6.19112 2.99525 4.9925 4.00683 4.00683C4.99002 2.99293 6.18872 2.21323 7.51415 1.72548C9.32762 1.05324 11.2434 0.698541 13.1773 0.676959C16.393 0.529902 17.3587 0.5 25.4998 0.5C33.6409 0.5 34.606 0.532843 37.8232 0.676959C39.7566 0.700528 41.6717 1.05516 43.4854 1.72548C44.8102 2.21387 46.0086 2.9933 46.9922 4.00634C48.0055 4.99027 48.7853 6.18896 49.274 7.51415C49.9464 9.32759 50.3013 11.2434 50.323 13.1773C50.4701 16.3945 50.5 17.3577 50.5 25.5007C50.5 33.6438 50.4701 34.607 50.323 37.8241C50.2997 39.7578 49.9449 41.6731 49.274 43.4868C48.7666 44.8021 47.9894 45.9965 46.9924 46.9933C45.9954 47.99 44.8008 48.7669 43.4854 49.274C41.6719 49.9464 39.7562 50.3013 37.8222 50.323C34.608 50.4701 33.6418 50.5 25.4988 50.5C17.3557 50.5 16.3925 50.4716 13.1783 50.323" fill="url(#paint0_radial_47_518)"/>
<path d="M13.1788 50.3226C11.2449 50.301 9.32909 49.9463 7.51562 49.274C6.19134 48.7845 4.9932 48.0052 4.00879 46.9932C2.99398 46.0107 2.21355 44.8123 1.72548 43.4868C1.0538 41.6734 0.699597 39.7578 0.67843 37.8241C0.529902 34.6095 0.5 33.6453 0.5 25.4998C0.5 17.3542 0.532843 16.3935 0.676959 13.1763C0.700695 11.2434 1.05533 9.32882 1.72548 7.51562C2.21593 6.19112 2.99525 4.9925 4.00683 4.00683C4.99002 2.99293 6.18872 2.21323 7.51415 1.72548C9.32762 1.05324 11.2434 0.698541 13.1773 0.676959C16.393 0.529902 17.3587 0.5 25.4998 0.5C33.6409 0.5 34.606 0.532843 37.8232 0.676959C39.7566 0.700528 41.6717 1.05516 43.4854 1.72548C44.8102 2.21387 46.0086 2.9933 46.9922 4.00634C48.0055 4.99027 48.7853 6.18896 49.274 7.51415C49.9464 9.32759 50.3013 11.2434 50.323 13.1773C50.4701 16.3945 50.5 17.3577 50.5 25.5007C50.5 33.6438 50.4701 34.607 50.323 37.8241C50.2997 39.7578 49.9449 41.6731 49.274 43.4868C48.7666 44.8021 47.9894 45.9965 46.9924 46.9933C45.9954 47.99 44.8008 48.7669 43.4854 49.274C41.6719 49.9464 39.7562 50.3013 37.8222 50.323C34.608 50.4701 33.6418 50.5 25.4988 50.5C17.3557 50.5 16.3925 50.4716 13.1783 50.323" fill="url(#paint1_radial_47_518)"/>
<path d="M19.361 25.6061C19.3611 24.3815 19.7243 23.1844 20.4048 22.1662C21.0852 21.1481 22.0523 20.3545 23.1837 19.886C24.3152 19.4175 25.5601 19.295 26.7612 19.534C27.9622 19.7731 29.0654 20.3629 29.9312 21.2289C30.7971 22.095 31.3866 23.1983 31.6254 24.3994C31.8641 25.6005 31.7414 26.8454 31.2726 27.9768C30.8038 29.1081 30.01 30.075 28.9917 30.7552C27.9734 31.4354 26.7762 31.7984 25.5516 31.7982C23.9096 31.7979 22.3349 31.1454 21.174 29.9842C20.013 28.8229 19.3609 27.2481 19.361 25.6061ZM16.0135 25.6061C16.0135 27.4925 16.5729 29.3366 17.6209 30.9052C18.669 32.4737 20.1587 33.6962 21.9015 34.4182C23.6444 35.1401 25.5622 35.329 27.4124 34.9609C29.2626 34.5929 30.9622 33.6845 32.2961 32.3505C33.63 31.0166 34.5385 29.3171 34.9065 27.4669C35.2745 25.6166 35.0856 23.6988 34.3637 21.956C33.6418 20.2131 32.4193 18.7234 30.8507 17.6754C29.2822 16.6273 27.4381 16.0679 25.5516 16.0679C24.299 16.0678 23.0587 16.3145 21.9015 16.7938C20.7442 17.2731 19.6927 17.9757 18.807 18.8614C17.9213 19.7471 17.2187 20.7986 16.7394 21.9559C16.2601 23.1131 16.0134 24.3535 16.0135 25.6061ZM33.2383 15.69C33.2381 16.1308 33.3687 16.5618 33.6134 16.9285C33.8582 17.2951 34.2061 17.5809 34.6133 17.7498C35.0205 17.9187 35.4687 17.963 35.9011 17.8772C36.3335 17.7914 36.7307 17.5793 37.0426 17.2677C37.3544 16.9561 37.5669 16.5591 37.6531 16.1268C37.7393 15.6944 37.6953 15.2463 37.5268 14.8389C37.3583 14.4316 37.0728 14.0833 36.7063 13.8383C36.3399 13.5932 35.909 13.4623 35.4682 13.4621C34.8773 13.4623 34.3107 13.6971 33.8927 14.1148C33.4748 14.5326 33.2398 15.0991 33.2393 15.69M18.0483 40.726C16.8704 40.7131 15.7035 40.4975 14.5988 40.0888C13.7976 39.78 13.07 39.3068 12.4627 38.6998C11.8554 38.0928 11.382 37.3653 11.0728 36.5643C10.6639 35.4596 10.4483 34.2927 10.4356 33.1148C10.3454 31.157 10.3278 30.5688 10.3278 25.6085C10.3278 20.6483 10.3474 20.0615 10.4356 18.1017C10.4499 16.924 10.6654 15.7573 11.0728 14.6522C11.3816 13.8508 11.8549 13.123 12.4622 12.5157C13.0695 11.9084 13.7974 11.4351 14.5988 11.1263C15.7035 10.7174 16.8704 10.5018 18.0483 10.4891C20.0061 10.3989 20.5943 10.3812 25.5526 10.3812C30.5109 10.3812 31.0996 10.4003 33.0594 10.4895C34.2371 10.5038 35.4038 10.7194 36.5089 11.1268C37.3103 11.4356 38.0381 11.9089 38.6454 12.5162C39.2527 13.1235 39.726 13.8513 40.0348 14.6527C40.4437 15.7574 40.6593 16.9243 40.6721 18.1022C40.7623 20.063 40.7799 20.6483 40.7799 25.609C40.7799 30.5697 40.7618 31.156 40.6721 33.1158C40.6583 34.2936 40.4428 35.4603 40.0348 36.5653C39.7257 37.3663 39.2522 38.0938 38.645 38.7008C38.0377 39.3078 37.31 39.7809 36.5089 40.0897C35.4042 40.4986 34.2373 40.7142 33.0594 40.727C31.1016 40.8172 30.5133 40.8348 25.5526 40.8348C20.5919 40.8348 20.0056 40.8167 18.0483 40.727M17.8943 7.14448C16.3531 7.17479 14.8282 7.4665 13.3846 8.00721C12.1505 8.48435 11.0298 9.2141 10.0942 10.1497C9.15868 11.0852 8.42893 12.2059 7.95179 13.44C7.41115 14.8836 7.11944 16.4085 7.08906 17.9498C6.9974 19.9301 6.97681 20.5635 6.97681 25.608C6.97681 30.6526 6.99789 31.2854 7.08906 33.2663C7.11943 34.8075 7.41114 36.3324 7.95179 37.776C8.42895 39.0101 9.15871 40.1308 10.0943 41.0664C11.0298 42.0019 12.1505 42.7317 13.3846 43.2088C14.8283 43.7493 16.3531 44.041 17.8943 44.0716C19.8757 44.1618 20.508 44.1838 25.5526 44.1838C30.5972 44.1838 31.23 44.1627 33.2109 44.0716C34.7521 44.0411 36.277 43.7494 37.7206 43.2088C38.9547 42.7317 40.0754 42.0019 41.0109 41.0664C41.9465 40.1308 42.6762 39.0101 43.1534 37.776C43.6948 36.3326 43.9865 34.8076 44.0162 33.2663C44.1063 31.2844 44.1269 30.6526 44.1269 25.608C44.1269 20.5635 44.1059 19.9306 44.0162 17.9498C43.9858 16.4085 43.6941 14.8836 43.1534 13.44C42.6763 12.2062 41.9467 11.0856 41.0114 10.1501C40.0761 9.21456 38.9558 8.48468 37.7221 8.00721C36.2786 7.46615 34.7536 7.17443 33.2123 7.14448C31.2315 7.0538 30.5986 7.03223 25.5551 7.03223C20.5115 7.03223 19.8772 7.05331 17.8953 7.14448" fill="white"/>
<defs>
<radialGradient id="paint0_radial_47_518" cx="0" cy="0" r="1" gradientUnits="userSpaceOnUse" gradientTransform="translate(3.73575 49.4044) scale(63.4808)">
<stop offset="0.09" stop-color="#FA8F21"/>
<stop offset="0.78" stop-color="#D82D7E"/>
</radialGradient>
<radialGradient id="paint1_radial_47_518" cx="0" cy="0" r="1" gradientUnits="userSpaceOnUse" gradientTransform="translate(35.133 47.7986) scale(55.8637)">
<stop offset="0.64" stop-color="#8C3AAA" stop-opacity="0"/>
<stop offset="1" stop-color="#8C3AAA"/>
</radialGradient>
</defs>
</svg>
