<svg xmlns="http://www.w3.org/2000/svg" xmlns:xlink="http://www.w3.org/1999/xlink" width="514" zoomAndPan="magnify" viewBox="0 0 385.5 180.749997" height="241" preserveAspectRatio="xMidYMid meet" version="1.0"><defs><g/><clipPath id="2a2e98323d"><path d="M 37.511719 37.542969 L 185.25 37.542969 L 185.25 143.285156 L 37.511719 143.285156 Z M 37.511719 37.542969 " clip-rule="nonzero"/></clipPath></defs><g clip-path="url(#2a2e98323d)"><path fill="#344d67" d="M 174.699219 47.910156 L 121.152344 47.910156 C 121.113281 42.1875 116.445312 37.542969 110.710938 37.542969 L 48.066406 37.542969 C 42.308594 37.542969 37.625 42.222656 37.625 47.976562 L 37.625 83.019531 C 37.625 88.769531 42.308594 93.449219 48.066406 93.449219 L 51.175781 93.449219 L 51.175781 109.023438 C 51.175781 111.410156 53.109375 113.34375 55.5 113.34375 C 55.527344 113.34375 55.550781 113.339844 55.582031 113.339844 C 55.609375 113.339844 55.636719 113.34375 55.664062 113.34375 C 56.753906 113.34375 57.84375 112.933594 58.683594 112.113281 L 77.808594 93.453125 L 87.199219 93.453125 L 87.199219 112.96875 C 87.199219 118.722656 91.886719 123.402344 97.640625 123.402344 L 144.957031 123.402344 L 164.082031 142.0625 C 164.925781 142.882812 166.015625 143.292969 167.101562 143.292969 C 167.132812 143.292969 167.15625 143.289062 167.1875 143.289062 C 167.210938 143.289062 167.238281 143.292969 167.265625 143.292969 C 169.65625 143.292969 171.589844 141.359375 171.589844 138.972656 L 171.589844 123.398438 L 174.699219 123.398438 C 180.457031 123.398438 185.140625 118.71875 185.140625 112.964844 L 185.140625 58.34375 C 185.140625 52.589844 180.453125 47.910156 174.699219 47.910156 Z M 174.699219 114.761719 L 167.265625 114.761719 C 164.875 114.761719 162.941406 116.699219 162.941406 119.085938 L 162.941406 128.875 L 149.734375 115.992188 C 149.695312 115.953125 149.65625 115.921875 149.613281 115.886719 C 149.558594 115.832031 149.5 115.777344 149.4375 115.730469 C 149.382812 115.683594 149.320312 115.644531 149.265625 115.601562 C 149.207031 115.5625 149.152344 115.519531 149.097656 115.484375 C 149.03125 115.441406 148.96875 115.40625 148.90625 115.367188 C 148.847656 115.332031 148.792969 115.296875 148.734375 115.269531 C 148.667969 115.234375 148.601562 115.203125 148.535156 115.175781 C 148.472656 115.144531 148.414062 115.117188 148.351562 115.089844 C 148.285156 115.066406 148.21875 115.042969 148.148438 115.015625 C 148.082031 114.992188 148.015625 114.96875 147.949219 114.949219 C 147.882812 114.929688 147.8125 114.914062 147.746094 114.898438 C 147.675781 114.882812 147.609375 114.863281 147.539062 114.847656 C 147.464844 114.835938 147.394531 114.828125 147.316406 114.816406 C 147.25 114.804688 147.1875 114.792969 147.121094 114.789062 C 147.035156 114.78125 146.949219 114.777344 146.863281 114.773438 C 146.8125 114.773438 146.769531 114.769531 146.71875 114.769531 L 97.640625 114.769531 C 96.652344 114.769531 95.847656 113.960938 95.847656 112.976562 L 95.847656 58.34375 C 95.847656 57.355469 96.652344 56.550781 97.640625 56.550781 L 174.699219 56.550781 C 175.6875 56.550781 176.492188 57.359375 176.492188 58.34375 L 176.492188 112.96875 C 176.492188 113.960938 175.6875 114.761719 174.699219 114.761719 Z M 174.699219 114.761719 " fill-opacity="1" fill-rule="nonzero"/></g><path fill="#344d67" d="M 194.167969 89.664062 L 347.550781 89.664062 L 347.550781 93.414062 L 194.167969 93.414062 Z M 194.167969 89.664062 " fill-opacity="1" fill-rule="nonzero"/><g fill="#344d67" fill-opacity="1"><g transform="translate(194.166681, 87.414535)"><g><path d="M 11.542969 0 L 10.597656 -8.289062 L 16.039062 -8.289062 C 23.378906 -8.289062 28.160156 -11.832031 28.160156 -18.59375 C 28.160156 -25.480469 23.253906 -28.738281 16.082031 -28.863281 L 1.15625 -28.863281 L 1.15625 0 Z M 10.597656 -16.535156 L 15.75 -16.535156 C 17.277344 -16.535156 18.636719 -16.246094 18.636719 -14.925781 C 18.636719 -13.8125 17.605469 -13.316406 15.710938 -13.316406 L 10.597656 -13.316406 Z M 10.597656 -16.535156 "/></g></g></g><g fill="#344d67" fill-opacity="1"><g transform="translate(222.857946, 87.414535)"><g><path d="M 13.277344 -5.9375 L 17.152344 -5.9375 L 17.9375 0 L 30.839844 0 L 21.027344 -28.863281 L 9.316406 -28.863281 L -0.496094 0 L 12.492188 0 Z M 15.542969 -18.019531 L 16.535156 -9.070312 L 13.8125 -9.070312 L 14.84375 -18.019531 Z M 15.542969 -18.019531 "/></g></g></g><g fill="#344d67" fill-opacity="1"><g transform="translate(253.198129, 87.414535)"><g><path d="M 13.6875 0 C 23.128906 0 29.027344 -5.070312 29.027344 -14.472656 C 29.027344 -23.832031 23.128906 -28.863281 13.6875 -28.863281 L 1.15625 -28.863281 L 1.15625 0 Z M 14.925781 -16.699219 C 17.769531 -16.699219 19.585938 -15.957031 19.585938 -14.429688 C 19.585938 -12.90625 17.769531 -12.203125 14.925781 -12.203125 L 10.597656 -12.203125 L 10.597656 -16.699219 Z M 14.925781 -16.699219 "/></g></g></g><g fill="#344d67" fill-opacity="1"><g transform="translate(282.96119, 87.414535)"><g><path d="M 14.390625 0.617188 C 22.84375 0.617188 27.75 -3.667969 27.75 -11.339844 L 27.75 -28.863281 L 17.441406 -28.863281 L 18.347656 -17.152344 C 18.59375 -14.019531 17.316406 -12 14.390625 -12 C 11.503906 -12 10.226562 -14.019531 10.472656 -17.152344 L 11.378906 -28.863281 L 1.070312 -28.863281 L 1.070312 -11.339844 C 1.070312 -3.585938 6.019531 0.617188 14.390625 0.617188 Z M 14.390625 0.617188 "/></g></g></g><g fill="#344d67" fill-opacity="1"><g transform="translate(311.776121, 87.414535)"><g><path d="M 13.605469 0 L 11.503906 -17.480469 L 12.164062 -17.566406 L 15.792969 -3.503906 L 19.957031 -3.503906 L 23.625 -17.566406 L 24.242188 -17.480469 L 22.140625 0 L 34.757812 0 L 32.40625 -28.863281 L 20.617188 -28.863281 L 18.183594 -12.699219 L 17.566406 -12.699219 L 15.171875 -28.863281 L 3.339844 -28.863281 L 1.03125 0 Z M 13.605469 0 "/></g></g></g><g fill="#344d67" fill-opacity="1"><g transform="translate(194.496927, 109.940524)"><g><path d="M 3.671875 -5.21875 L 6.359375 -9.21875 C 5.742188 -9.195312 5.097656 -9.109375 4.421875 -8.953125 C 3.753906 -8.804688 3.179688 -8.644531 2.703125 -8.46875 C 2.222656 -8.289062 1.789062 -8.125 1.40625 -7.96875 C 1.03125 -7.820312 0.757812 -7.710938 0.59375 -7.640625 C 0.550781 -7.640625 0.507812 -7.65625 0.46875 -7.6875 C 0.425781 -7.71875 0.40625 -7.753906 0.40625 -7.796875 C 0.40625 -7.835938 0.539062 -8.125 0.8125 -8.65625 C 1.09375 -9.1875 1.414062 -9.753906 1.78125 -10.359375 C 3.832031 -11.085938 5.644531 -11.453125 7.21875 -11.453125 C 9.03125 -11.453125 10.289062 -11.066406 11 -10.296875 C 11.25 -10.023438 11.441406 -9.691406 11.578125 -9.296875 C 11.710938 -8.898438 11.78125 -8.507812 11.78125 -8.125 C 11.78125 -7.238281 11.597656 -6.4375 11.234375 -5.71875 C 10.867188 -5.007812 10.347656 -4.390625 9.671875 -3.859375 C 8.992188 -3.328125 8.191406 -2.921875 7.265625 -2.640625 C 6.347656 -2.367188 5.34375 -2.234375 4.25 -2.234375 C 4.050781 -2.234375 3.65625 -2.269531 3.0625 -2.34375 L 2.265625 -0.890625 C 2.347656 -0.773438 2.390625 -0.675781 2.390625 -0.59375 C 2.390625 -0.414062 2.347656 -0.265625 2.265625 -0.140625 C 2.148438 0.0351562 1.992188 0.265625 1.796875 0.546875 C 1.609375 0.835938 1.476562 1.03125 1.40625 1.125 C 1.34375 1.21875 1.269531 1.300781 1.1875 1.375 C 1.101562 1.445312 1.019531 1.484375 0.9375 1.484375 C 0.757812 1.484375 0.644531 1.429688 0.59375 1.328125 C 0.550781 1.222656 0.53125 1.078125 0.53125 0.890625 C 0.53125 0.640625 0.65625 0.234375 0.90625 -0.328125 C 1.164062 -0.890625 1.554688 -1.632812 2.078125 -2.5625 C 1.796875 -2.664062 1.578125 -2.800781 1.421875 -2.96875 C 1.273438 -3.132812 1.203125 -3.300781 1.203125 -3.46875 C 1.203125 -3.832031 1.410156 -4.171875 1.828125 -4.484375 C 2.242188 -4.796875 2.859375 -5.039062 3.671875 -5.21875 Z M 4.59375 -4.984375 L 4.09375 -4.140625 C 4.3125 -4.128906 4.503906 -4.117188 4.671875 -4.109375 C 4.847656 -4.097656 4.992188 -4.09375 5.109375 -4.09375 C 6.140625 -4.09375 7.03125 -4.226562 7.78125 -4.5 C 8.53125 -4.769531 9.125 -5.109375 9.5625 -5.515625 C 10.007812 -5.929688 10.332031 -6.34375 10.53125 -6.75 C 10.738281 -7.15625 10.84375 -7.5 10.84375 -7.78125 C 10.84375 -8.15625 10.6875 -8.453125 10.375 -8.671875 C 10.070312 -8.890625 9.632812 -9.035156 9.0625 -9.109375 C 8.488281 -9.191406 7.753906 -9.234375 6.859375 -9.234375 C 6.867188 -9.171875 6.875 -9.09375 6.875 -9 C 6.875 -8.695312 6.710938 -8.296875 6.390625 -7.796875 L 4.859375 -5.390625 L 6.015625 -5.53125 C 6.109375 -5.53125 6.15625 -5.484375 6.15625 -5.390625 C 6.15625 -5.316406 6.078125 -5.265625 5.921875 -5.234375 Z M 4.59375 -4.984375 "/></g></g><g transform="translate(205.745958, 109.940524)"><g><path d="M 4.28125 -3.359375 C 3.425781 -2.234375 2.773438 -1.429688 2.328125 -0.953125 C 1.890625 -0.484375 1.53125 -0.25 1.25 -0.25 C 1.03125 -0.25 0.828125 -0.34375 0.640625 -0.53125 C 0.453125 -0.71875 0.304688 -0.96875 0.203125 -1.28125 C 0.0976562 -1.59375 0.046875 -1.925781 0.046875 -2.28125 C 0.046875 -2.519531 0.0664062 -2.734375 0.109375 -2.921875 C 0.160156 -3.109375 0.242188 -3.3125 0.359375 -3.53125 C 0.484375 -3.757812 0.644531 -4.003906 0.84375 -4.265625 C 1.050781 -4.535156 1.300781 -4.835938 1.59375 -5.171875 C 1.769531 -5.367188 1.914062 -5.535156 2.03125 -5.671875 C 2.15625 -5.816406 2.273438 -5.914062 2.390625 -5.96875 C 2.503906 -6.019531 2.691406 -6.046875 2.953125 -6.046875 C 3.140625 -6.046875 3.316406 -6.019531 3.484375 -5.96875 C 3.660156 -5.914062 3.75 -5.863281 3.75 -5.8125 C 3.75 -5.707031 3.660156 -5.515625 3.484375 -5.234375 C 3.304688 -4.960938 3.023438 -4.628906 2.640625 -4.234375 C 2.265625 -3.835938 1.820312 -3.453125 1.3125 -3.078125 C 1.207031 -2.734375 1.15625 -2.46875 1.15625 -2.28125 C 1.15625 -2.03125 1.25 -1.90625 1.4375 -1.90625 C 1.507812 -1.90625 1.628906 -1.960938 1.796875 -2.078125 C 1.960938 -2.203125 2.238281 -2.4375 2.625 -2.78125 C 3.007812 -3.125 3.359375 -3.425781 3.671875 -3.6875 C 3.898438 -3.882812 4.164062 -4.179688 4.46875 -4.578125 C 4.769531 -4.972656 5.015625 -5.269531 5.203125 -5.46875 C 5.640625 -5.925781 5.9375 -6.222656 6.09375 -6.359375 C 6.25 -6.503906 6.398438 -6.578125 6.546875 -6.578125 C 6.691406 -6.578125 6.785156 -6.53125 6.828125 -6.4375 C 6.878906 -6.351562 6.90625 -6.175781 6.90625 -5.90625 C 6.90625 -5.78125 6.894531 -5.679688 6.875 -5.609375 C 6.851562 -5.535156 6.804688 -5.4375 6.734375 -5.3125 C 6.660156 -5.195312 6.507812 -4.976562 6.28125 -4.65625 C 6.0625 -4.332031 5.800781 -3.945312 5.5 -3.5 C 5.332031 -3.269531 5.1875 -3.015625 5.0625 -2.734375 C 4.9375 -2.460938 4.875 -2.253906 4.875 -2.109375 C 4.875 -1.804688 4.992188 -1.65625 5.234375 -1.65625 C 5.429688 -1.65625 5.660156 -1.734375 5.921875 -1.890625 C 6.191406 -2.054688 6.597656 -2.351562 7.140625 -2.78125 L 7.140625 -2.203125 C 6.460938 -1.566406 5.957031 -1.101562 5.625 -0.8125 C 5.300781 -0.53125 5.015625 -0.316406 4.765625 -0.171875 C 4.523438 -0.0234375 4.300781 0.046875 4.09375 0.046875 C 3.59375 0.046875 3.34375 -0.242188 3.34375 -0.828125 C 3.34375 -1.046875 3.414062 -1.34375 3.5625 -1.71875 C 3.707031 -2.101562 3.945312 -2.648438 4.28125 -3.359375 Z M 4.28125 -3.359375 "/></g></g><g transform="translate(212.671143, 109.940524)"><g><path d="M 0.109375 -2.515625 L 0.109375 -2.734375 C 1.617188 -4.328125 2.65625 -5.441406 3.21875 -6.078125 C 3.351562 -6.796875 3.664062 -7.15625 4.15625 -7.15625 C 4.28125 -7.15625 4.410156 -7.125 4.546875 -7.0625 L 4.609375 -6.890625 C 4.585938 -6.816406 4.578125 -6.71875 4.578125 -6.59375 C 4.578125 -6.476562 4.617188 -6.269531 4.703125 -5.96875 C 4.785156 -5.664062 4.847656 -5.410156 4.890625 -5.203125 C 4.941406 -5.003906 4.96875 -4.773438 4.96875 -4.515625 C 4.96875 -4.128906 4.878906 -3.757812 4.703125 -3.40625 C 4.523438 -3.050781 4.269531 -2.710938 3.9375 -2.390625 C 3.601562 -2.066406 3.171875 -1.734375 2.640625 -1.390625 C 2.859375 -1.359375 3.023438 -1.34375 3.140625 -1.34375 C 3.378906 -1.34375 3.640625 -1.398438 3.921875 -1.515625 C 4.203125 -1.640625 4.488281 -1.800781 4.78125 -2 C 5.070312 -2.195312 5.410156 -2.457031 5.796875 -2.78125 L 5.796875 -2.203125 C 5.046875 -1.460938 4.375 -0.90625 3.78125 -0.53125 C 3.1875 -0.15625 2.675781 0.03125 2.25 0.03125 C 1.695312 0.03125 1.1875 -0.203125 0.71875 -0.671875 C 0.445312 -0.953125 0.273438 -1.21875 0.203125 -1.46875 C 0.140625 -1.726562 0.109375 -2.078125 0.109375 -2.515625 Z M 3.390625 -3.875 L 3.21875 -5.15625 C 2.863281 -4.738281 2.085938 -3.945312 0.890625 -2.78125 C 1.242188 -2.707031 1.484375 -2.601562 1.609375 -2.46875 C 1.742188 -2.34375 1.925781 -2.097656 2.15625 -1.734375 C 2.5625 -1.898438 2.867188 -2.125 3.078125 -2.40625 C 3.296875 -2.6875 3.40625 -3.070312 3.40625 -3.5625 C 3.40625 -3.625 3.398438 -3.675781 3.390625 -3.71875 C 3.390625 -3.769531 3.390625 -3.820312 3.390625 -3.875 Z M 3.390625 -3.875 "/></g></g><g transform="translate(218.28687, 109.940524)"><g><path d="M 1.171875 -4.34375 C 2.054688 -5.15625 2.914062 -5.753906 3.75 -6.140625 C 4.59375 -6.535156 5.242188 -6.734375 5.703125 -6.734375 C 5.828125 -6.734375 5.941406 -6.679688 6.046875 -6.578125 C 6.148438 -6.472656 6.234375 -6.351562 6.296875 -6.21875 C 6.359375 -6.082031 6.390625 -5.984375 6.390625 -5.921875 C 6.390625 -5.816406 6.347656 -5.738281 6.265625 -5.6875 C 6.179688 -5.632812 6.039062 -5.578125 5.84375 -5.515625 C 5.875 -5.421875 5.921875 -5.300781 5.984375 -5.15625 C 6.054688 -5.007812 6.109375 -4.890625 6.140625 -4.796875 C 6.179688 -4.703125 6.203125 -4.617188 6.203125 -4.546875 C 6.203125 -4.410156 6.054688 -4.148438 5.765625 -3.765625 C 5.484375 -3.378906 5.285156 -3.09375 5.171875 -2.90625 C 5.054688 -2.726562 5 -2.507812 5 -2.25 C 5 -1.8125 5.195312 -1.59375 5.59375 -1.59375 C 6.007812 -1.59375 6.65625 -1.976562 7.53125 -2.75 L 7.53125 -2.21875 C 6.039062 -0.570312 4.976562 0.25 4.34375 0.25 C 4.113281 0.25 3.945312 0.175781 3.84375 0.03125 C 3.75 -0.113281 3.703125 -0.335938 3.703125 -0.640625 C 3.703125 -1.097656 3.867188 -1.765625 4.203125 -2.640625 C 3.347656 -1.691406 2.710938 -1.015625 2.296875 -0.609375 C 1.878906 -0.210938 1.539062 -0.015625 1.28125 -0.015625 C 1.144531 -0.015625 0.976562 -0.125 0.78125 -0.34375 C 0.59375 -0.570312 0.421875 -0.863281 0.265625 -1.21875 C 0.117188 -1.570312 0.046875 -1.941406 0.046875 -2.328125 C 0.046875 -2.597656 0.0703125 -2.820312 0.125 -3 C 0.1875 -3.1875 0.289062 -3.378906 0.4375 -3.578125 C 0.59375 -3.773438 0.835938 -4.03125 1.171875 -4.34375 Z M 5.375 -5.3125 C 3.851562 -4.613281 2.769531 -4.019531 2.125 -3.53125 C 1.476562 -3.039062 1.15625 -2.539062 1.15625 -2.03125 C 1.15625 -1.84375 1.1875 -1.6875 1.25 -1.5625 C 1.3125 -1.445312 1.398438 -1.390625 1.515625 -1.390625 C 1.578125 -1.390625 1.691406 -1.429688 1.859375 -1.515625 C 2.472656 -1.878906 3.035156 -2.351562 3.546875 -2.9375 C 4.054688 -3.519531 4.664062 -4.3125 5.375 -5.3125 Z M 5.375 -5.3125 "/></g></g><g transform="translate(225.589952, 109.940524)"><g><path d="M 3.21875 -7.328125 L 3.609375 -7.328125 C 3.910156 -7.890625 4.1875 -8.285156 4.4375 -8.515625 C 4.695312 -8.742188 4.988281 -8.859375 5.3125 -8.859375 C 5.632812 -8.859375 5.796875 -8.785156 5.796875 -8.640625 C 5.796875 -8.566406 5.664062 -8.375 5.40625 -8.0625 C 5.15625 -7.757812 4.96875 -7.5 4.84375 -7.28125 C 5.039062 -7.257812 5.21875 -7.238281 5.375 -7.21875 C 5.53125 -7.207031 5.648438 -7.195312 5.734375 -7.1875 C 5.398438 -6.5625 4.984375 -5.925781 4.484375 -5.28125 C 4.316406 -5.289062 4.175781 -5.296875 4.0625 -5.296875 C 3.957031 -5.304688 3.847656 -5.316406 3.734375 -5.328125 C 3.617188 -5.335938 3.476562 -5.347656 3.3125 -5.359375 C 3 -4.847656 2.734375 -4.390625 2.515625 -3.984375 C 2.304688 -3.585938 2.144531 -3.222656 2.03125 -2.890625 C 1.914062 -2.554688 1.859375 -2.238281 1.859375 -1.9375 C 1.859375 -1.539062 2.019531 -1.34375 2.34375 -1.34375 C 2.5625 -1.34375 2.847656 -1.457031 3.203125 -1.6875 C 3.566406 -1.925781 4.050781 -2.289062 4.65625 -2.78125 L 4.65625 -2.203125 C 3.070312 -0.484375 1.90625 0.375 1.15625 0.375 C 0.882812 0.375 0.664062 0.269531 0.5 0.0625 C 0.34375 -0.132812 0.265625 -0.394531 0.265625 -0.71875 C 0.265625 -0.9375 0.3125 -1.191406 0.40625 -1.484375 C 0.5 -1.785156 0.660156 -2.238281 0.890625 -2.84375 C 0.816406 -2.78125 0.738281 -2.710938 0.65625 -2.640625 C 0.582031 -2.578125 0.515625 -2.515625 0.453125 -2.453125 C 0.398438 -2.398438 0.335938 -2.34375 0.265625 -2.28125 C 0.191406 -2.21875 0.117188 -2.15625 0.046875 -2.09375 L 0.046875 -2.703125 C 0.660156 -3.210938 1.40625 -4.117188 2.28125 -5.421875 C 2.195312 -5.421875 2.113281 -5.421875 2.03125 -5.421875 C 1.957031 -5.429688 1.867188 -5.4375 1.765625 -5.4375 C 1.421875 -5.4375 1.164062 -5.410156 1 -5.359375 C 0.925781 -5.335938 0.859375 -5.316406 0.796875 -5.296875 C 0.734375 -5.285156 0.691406 -5.28125 0.671875 -5.28125 C 0.648438 -5.28125 0.640625 -5.296875 0.640625 -5.328125 C 0.640625 -5.515625 0.757812 -5.804688 1 -6.203125 C 1.1875 -6.523438 1.363281 -6.765625 1.53125 -6.921875 C 1.707031 -7.078125 1.921875 -7.179688 2.171875 -7.234375 C 2.421875 -7.296875 2.769531 -7.328125 3.21875 -7.328125 Z M 3.21875 -7.328125 "/></g></g><g transform="translate(230.089564, 109.940524)"><g/></g><g transform="translate(235.14284, 109.940524)"><g><path d="M 7.828125 -3.625 C 7.128906 -3.601562 6.613281 -3.59375 6.28125 -3.59375 C 5.78125 -3.59375 5.082031 -3.601562 4.1875 -3.625 C 4 -3.414062 3.769531 -3.171875 3.5 -2.890625 C 3.238281 -2.617188 2.984375 -2.363281 2.734375 -2.125 C 2.492188 -1.882812 2.285156 -1.679688 2.109375 -1.515625 C 1.941406 -1.347656 1.804688 -1.207031 1.703125 -1.09375 C 1.046875 -0.46875 0.617188 -0.0546875 0.421875 0.140625 C 0.222656 0.335938 0.0195312 0.507812 -0.1875 0.65625 C -0.40625 0.8125 -0.609375 0.890625 -0.796875 0.890625 C -0.992188 0.890625 -1.09375 0.796875 -1.09375 0.609375 C -1.09375 0.410156 -0.945312 0.0976562 -0.65625 -0.328125 C -0.363281 -0.753906 -0.0351562 -1.128906 0.328125 -1.453125 C 0.703125 -1.785156 1.003906 -1.953125 1.234375 -1.953125 C 1.304688 -1.953125 1.398438 -1.925781 1.515625 -1.875 L 3.1875 -3.65625 C 2.96875 -3.6875 2.6875 -3.707031 2.34375 -3.71875 C 2.007812 -3.726562 1.785156 -3.75 1.671875 -3.78125 C 1.554688 -3.820312 1.5 -3.925781 1.5 -4.09375 C 1.5 -4.34375 1.765625 -4.738281 2.296875 -5.28125 C 2.597656 -5.570312 2.875 -5.757812 3.125 -5.84375 C 3.382812 -5.925781 3.878906 -5.972656 4.609375 -5.984375 C 4.179688 -5.921875 3.875 -5.847656 3.6875 -5.765625 C 3.507812 -5.691406 3.414062 -5.578125 3.40625 -5.421875 C 3.570312 -5.421875 3.726562 -5.421875 3.875 -5.421875 C 4.019531 -5.421875 4.207031 -5.421875 4.4375 -5.421875 C 4.664062 -5.421875 4.835938 -5.425781 4.953125 -5.4375 C 5.910156 -6.375 6.78125 -7.1875 7.5625 -7.875 C 8.351562 -8.570312 9.179688 -9.234375 10.046875 -9.859375 C 10.921875 -10.484375 11.847656 -11.054688 12.828125 -11.578125 C 13.023438 -11.328125 13.125 -11.0625 13.125 -10.78125 C 13.125 -10.550781 13.046875 -10.285156 12.890625 -9.984375 C 12.742188 -9.691406 12.425781 -9.132812 11.9375 -8.3125 C 11.457031 -7.488281 10.972656 -6.613281 10.484375 -5.6875 C 10.640625 -5.6875 10.769531 -5.679688 10.875 -5.671875 C 10.988281 -5.671875 11.109375 -5.671875 11.234375 -5.671875 C 11.566406 -5.671875 11.769531 -5.664062 11.84375 -5.65625 C 11.914062 -5.644531 11.953125 -5.582031 11.953125 -5.46875 C 11.953125 -5.425781 11.90625 -5.34375 11.8125 -5.21875 C 11.726562 -5.101562 11.570312 -4.90625 11.34375 -4.625 C 11.113281 -4.34375 10.890625 -4.0625 10.671875 -3.78125 L 9.375 -3.671875 C 8.6875 -2.378906 8.34375 -1.65625 8.34375 -1.5 C 8.34375 -1.257812 8.472656 -1.140625 8.734375 -1.140625 C 8.847656 -1.140625 9.351562 -1.394531 10.25 -1.90625 L 10.1875 -1.4375 C 9.707031 -1.070312 9.332031 -0.785156 9.0625 -0.578125 C 8.800781 -0.367188 8.570312 -0.195312 8.375 -0.0625 C 8.175781 0.0703125 7.992188 0.171875 7.828125 0.234375 C 7.671875 0.304688 7.507812 0.34375 7.34375 0.34375 C 7.15625 0.34375 6.96875 0.253906 6.78125 0.078125 C 6.59375 -0.0976562 6.5 -0.351562 6.5 -0.6875 C 6.5 -0.820312 6.546875 -1.015625 6.640625 -1.265625 C 6.742188 -1.515625 6.851562 -1.753906 6.96875 -1.984375 C 7.082031 -2.210938 7.367188 -2.757812 7.828125 -3.625 Z M 6.171875 -5.609375 L 9.015625 -5.671875 C 9.347656 -6.234375 9.617188 -6.691406 9.828125 -7.046875 C 10.035156 -7.398438 10.265625 -7.78125 10.515625 -8.1875 C 10.765625 -8.601562 10.976562 -8.953125 11.15625 -9.234375 C 11.332031 -9.523438 11.53125 -9.851562 11.75 -10.21875 C 11.332031 -9.957031 10.898438 -9.664062 10.453125 -9.34375 C 10.015625 -9.019531 9.519531 -8.628906 8.96875 -8.171875 C 8.414062 -7.722656 7.925781 -7.300781 7.5 -6.90625 C 7.070312 -6.519531 6.628906 -6.085938 6.171875 -5.609375 Z M 6.171875 -5.609375 "/></g></g><g transform="translate(246.567637, 109.940524)"><g><path d="M 4.15625 -2.75 C 3.644531 -2.164062 3.179688 -1.664062 2.765625 -1.25 C 2.359375 -0.84375 2.023438 -0.535156 1.765625 -0.328125 C 1.515625 -0.128906 1.34375 -0.03125 1.25 -0.03125 C 1.101562 -0.03125 0.929688 -0.15625 0.734375 -0.40625 C 0.546875 -0.65625 0.382812 -0.96875 0.25 -1.34375 C 0.113281 -1.726562 0.046875 -2.113281 0.046875 -2.5 C 0.046875 -3.070312 0.320312 -3.644531 0.875 -4.21875 C 1.425781 -4.800781 2.050781 -5.28125 2.75 -5.65625 C 3.457031 -6.039062 3.988281 -6.234375 4.34375 -6.234375 C 4.625 -6.234375 4.90625 -6.050781 5.1875 -5.6875 C 5.632812 -6.632812 6.0625 -7.472656 6.46875 -8.203125 C 6.875 -8.929688 7.210938 -9.472656 7.484375 -9.828125 C 7.765625 -10.191406 7.96875 -10.375 8.09375 -10.375 C 8.21875 -10.375 8.332031 -10.3125 8.4375 -10.1875 C 8.550781 -10.0625 8.609375 -9.914062 8.609375 -9.75 C 8.609375 -9.445312 8.382812 -8.925781 7.9375 -8.1875 C 7.488281 -7.445312 7.046875 -6.722656 6.609375 -6.015625 C 6.179688 -5.316406 5.8125 -4.625 5.5 -3.9375 C 5.1875 -3.257812 5.03125 -2.628906 5.03125 -2.046875 C 5.03125 -1.515625 5.203125 -1.25 5.546875 -1.25 C 5.753906 -1.25 6.007812 -1.363281 6.3125 -1.59375 C 6.625 -1.832031 7.066406 -2.222656 7.640625 -2.765625 L 7.640625 -2.125 C 6.378906 -0.488281 5.40625 0.328125 4.71875 0.328125 C 4.445312 0.328125 4.25 0.21875 4.125 0 C 4.007812 -0.207031 3.953125 -0.519531 3.953125 -0.9375 C 3.953125 -1.5 4.019531 -2.101562 4.15625 -2.75 Z M 4.8125 -4.890625 C 4.289062 -4.710938 3.675781 -4.429688 2.96875 -4.046875 C 2.269531 -3.660156 1.847656 -3.394531 1.703125 -3.25 C 1.566406 -3.125 1.445312 -2.898438 1.34375 -2.578125 C 1.25 -2.253906 1.203125 -2.015625 1.203125 -1.859375 C 1.203125 -1.753906 1.226562 -1.671875 1.28125 -1.609375 C 1.34375 -1.546875 1.421875 -1.515625 1.515625 -1.515625 C 1.597656 -1.515625 1.691406 -1.546875 1.796875 -1.609375 C 1.898438 -1.679688 2.066406 -1.820312 2.296875 -2.03125 C 2.523438 -2.238281 2.675781 -2.367188 2.75 -2.421875 C 2.851562 -2.515625 3.070312 -2.703125 3.40625 -2.984375 C 3.75 -3.273438 4 -3.503906 4.15625 -3.671875 C 4.320312 -3.835938 4.457031 -4.019531 4.5625 -4.21875 C 4.675781 -4.425781 4.757812 -4.648438 4.8125 -4.890625 Z M 4.8125 -4.890625 "/></g></g><g transform="translate(254.07285, 109.940524)"><g><path d="M 4.28125 -3.359375 C 3.425781 -2.234375 2.773438 -1.429688 2.328125 -0.953125 C 1.890625 -0.484375 1.53125 -0.25 1.25 -0.25 C 1.03125 -0.25 0.828125 -0.34375 0.640625 -0.53125 C 0.453125 -0.71875 0.304688 -0.96875 0.203125 -1.28125 C 0.0976562 -1.59375 0.046875 -1.925781 0.046875 -2.28125 C 0.046875 -2.519531 0.0664062 -2.734375 0.109375 -2.921875 C 0.160156 -3.109375 0.242188 -3.3125 0.359375 -3.53125 C 0.484375 -3.757812 0.644531 -4.003906 0.84375 -4.265625 C 1.050781 -4.535156 1.300781 -4.835938 1.59375 -5.171875 C 1.769531 -5.367188 1.914062 -5.535156 2.03125 -5.671875 C 2.15625 -5.816406 2.273438 -5.914062 2.390625 -5.96875 C 2.503906 -6.019531 2.691406 -6.046875 2.953125 -6.046875 C 3.140625 -6.046875 3.316406 -6.019531 3.484375 -5.96875 C 3.660156 -5.914062 3.75 -5.863281 3.75 -5.8125 C 3.75 -5.707031 3.660156 -5.515625 3.484375 -5.234375 C 3.304688 -4.960938 3.023438 -4.628906 2.640625 -4.234375 C 2.265625 -3.835938 1.820312 -3.453125 1.3125 -3.078125 C 1.207031 -2.734375 1.15625 -2.46875 1.15625 -2.28125 C 1.15625 -2.03125 1.25 -1.90625 1.4375 -1.90625 C 1.507812 -1.90625 1.628906 -1.960938 1.796875 -2.078125 C 1.960938 -2.203125 2.238281 -2.4375 2.625 -2.78125 C 3.007812 -3.125 3.359375 -3.425781 3.671875 -3.6875 C 3.898438 -3.882812 4.164062 -4.179688 4.46875 -4.578125 C 4.769531 -4.972656 5.015625 -5.269531 5.203125 -5.46875 C 5.640625 -5.925781 5.9375 -6.222656 6.09375 -6.359375 C 6.25 -6.503906 6.398438 -6.578125 6.546875 -6.578125 C 6.691406 -6.578125 6.785156 -6.53125 6.828125 -6.4375 C 6.878906 -6.351562 6.90625 -6.175781 6.90625 -5.90625 C 6.90625 -5.78125 6.894531 -5.679688 6.875 -5.609375 C 6.851562 -5.535156 6.804688 -5.4375 6.734375 -5.3125 C 6.660156 -5.195312 6.507812 -4.976562 6.28125 -4.65625 C 6.0625 -4.332031 5.800781 -3.945312 5.5 -3.5 C 5.332031 -3.269531 5.1875 -3.015625 5.0625 -2.734375 C 4.9375 -2.460938 4.875 -2.253906 4.875 -2.109375 C 4.875 -1.804688 4.992188 -1.65625 5.234375 -1.65625 C 5.429688 -1.65625 5.660156 -1.734375 5.921875 -1.890625 C 6.191406 -2.054688 6.597656 -2.351562 7.140625 -2.78125 L 7.140625 -2.203125 C 6.460938 -1.566406 5.957031 -1.101562 5.625 -0.8125 C 5.300781 -0.53125 5.015625 -0.316406 4.765625 -0.171875 C 4.523438 -0.0234375 4.300781 0.046875 4.09375 0.046875 C 3.59375 0.046875 3.34375 -0.242188 3.34375 -0.828125 C 3.34375 -1.046875 3.414062 -1.34375 3.5625 -1.71875 C 3.707031 -2.101562 3.945312 -2.648438 4.28125 -3.359375 Z M 4.28125 -3.359375 "/></g></g><g transform="translate(260.998034, 109.940524)"><g><path d="M 1.171875 -4.34375 C 2.054688 -5.15625 2.914062 -5.753906 3.75 -6.140625 C 4.59375 -6.535156 5.242188 -6.734375 5.703125 -6.734375 C 5.828125 -6.734375 5.941406 -6.679688 6.046875 -6.578125 C 6.148438 -6.472656 6.234375 -6.351562 6.296875 -6.21875 C 6.359375 -6.082031 6.390625 -5.984375 6.390625 -5.921875 C 6.390625 -5.816406 6.347656 -5.738281 6.265625 -5.6875 C 6.179688 -5.632812 6.039062 -5.578125 5.84375 -5.515625 C 5.875 -5.421875 5.921875 -5.300781 5.984375 -5.15625 C 6.054688 -5.007812 6.109375 -4.890625 6.140625 -4.796875 C 6.179688 -4.703125 6.203125 -4.617188 6.203125 -4.546875 C 6.203125 -4.410156 6.054688 -4.148438 5.765625 -3.765625 C 5.484375 -3.378906 5.285156 -3.09375 5.171875 -2.90625 C 5.054688 -2.726562 5 -2.507812 5 -2.25 C 5 -1.8125 5.195312 -1.59375 5.59375 -1.59375 C 6.007812 -1.59375 6.65625 -1.976562 7.53125 -2.75 L 7.53125 -2.21875 C 6.039062 -0.570312 4.976562 0.25 4.34375 0.25 C 4.113281 0.25 3.945312 0.175781 3.84375 0.03125 C 3.75 -0.113281 3.703125 -0.335938 3.703125 -0.640625 C 3.703125 -1.097656 3.867188 -1.765625 4.203125 -2.640625 C 3.347656 -1.691406 2.710938 -1.015625 2.296875 -0.609375 C 1.878906 -0.210938 1.539062 -0.015625 1.28125 -0.015625 C 1.144531 -0.015625 0.976562 -0.125 0.78125 -0.34375 C 0.59375 -0.570312 0.421875 -0.863281 0.265625 -1.21875 C 0.117188 -1.570312 0.046875 -1.941406 0.046875 -2.328125 C 0.046875 -2.597656 0.0703125 -2.820312 0.125 -3 C 0.1875 -3.1875 0.289062 -3.378906 0.4375 -3.578125 C 0.59375 -3.773438 0.835938 -4.03125 1.171875 -4.34375 Z M 5.375 -5.3125 C 3.851562 -4.613281 2.769531 -4.019531 2.125 -3.53125 C 1.476562 -3.039062 1.15625 -2.539062 1.15625 -2.03125 C 1.15625 -1.84375 1.1875 -1.6875 1.25 -1.5625 C 1.3125 -1.445312 1.398438 -1.390625 1.515625 -1.390625 C 1.578125 -1.390625 1.691406 -1.429688 1.859375 -1.515625 C 2.472656 -1.878906 3.035156 -2.351562 3.546875 -2.9375 C 4.054688 -3.519531 4.664062 -4.3125 5.375 -5.3125 Z M 5.375 -5.3125 "/></g></g><g transform="translate(268.301116, 109.940524)"><g><path d="M 6.0625 -4.359375 C 5.03125 -3.210938 4.515625 -2.410156 4.515625 -1.953125 C 4.515625 -1.703125 4.617188 -1.578125 4.828125 -1.578125 C 4.992188 -1.578125 5.210938 -1.664062 5.484375 -1.84375 C 5.753906 -2.03125 6.179688 -2.347656 6.765625 -2.796875 L 6.765625 -2.203125 C 5.929688 -1.378906 5.289062 -0.785156 4.84375 -0.421875 C 4.40625 -0.0546875 4.046875 0.125 3.765625 0.125 C 3.285156 0.125 3.046875 -0.191406 3.046875 -0.828125 C 3.046875 -1.015625 3.070312 -1.195312 3.125 -1.375 C 3.1875 -1.5625 3.269531 -1.75 3.375 -1.9375 C 3.476562 -2.132812 3.632812 -2.414062 3.84375 -2.78125 C 4.050781 -3.15625 4.296875 -3.570312 4.578125 -4.03125 C 4.234375 -3.863281 3.8125 -3.53125 3.3125 -3.03125 C 2.988281 -2.707031 2.710938 -2.40625 2.484375 -2.125 C 2.253906 -1.84375 2.007812 -1.523438 1.75 -1.171875 C 1.488281 -0.828125 1.296875 -0.59375 1.171875 -0.46875 C 1.054688 -0.351562 0.9375 -0.296875 0.8125 -0.296875 C 0.625 -0.296875 0.445312 -0.488281 0.28125 -0.875 C 0.125 -1.269531 0.046875 -1.726562 0.046875 -2.25 C 0.046875 -2.570312 0.0820312 -2.820312 0.15625 -3 C 0.226562 -3.1875 0.375 -3.445312 0.59375 -3.78125 C 1 -4.40625 1.347656 -4.859375 1.640625 -5.140625 C 1.929688 -5.429688 2.210938 -5.578125 2.484375 -5.578125 C 2.671875 -5.578125 2.820312 -5.546875 2.9375 -5.484375 C 3.050781 -5.421875 3.109375 -5.320312 3.109375 -5.1875 C 3.109375 -5.125 3.085938 -5.0625 3.046875 -5 C 3.015625 -4.9375 2.976562 -4.878906 2.9375 -4.828125 C 2.894531 -4.773438 2.800781 -4.671875 2.65625 -4.515625 C 1.738281 -3.492188 1.28125 -2.828125 1.28125 -2.515625 C 1.28125 -2.347656 1.332031 -2.265625 1.4375 -2.265625 C 1.507812 -2.265625 1.644531 -2.375 1.84375 -2.59375 C 2.050781 -2.820312 2.3125 -3.117188 2.625 -3.484375 C 2.945312 -3.859375 3.328125 -4.242188 3.765625 -4.640625 C 4.203125 -5.035156 4.695312 -5.421875 5.25 -5.796875 C 5.5625 -6.015625 5.820312 -6.125 6.03125 -6.125 C 6.125 -6.125 6.210938 -5.992188 6.296875 -5.734375 C 6.390625 -5.472656 6.4375 -5.210938 6.4375 -4.953125 C 6.4375 -4.816406 6.3125 -4.617188 6.0625 -4.359375 Z M 6.0625 -4.359375 "/></g></g><g transform="translate(274.874769, 109.940524)"><g/></g><g transform="translate(279.928044, 109.940524)"><g><path d="M 15.203125 -2.796875 L 15.203125 -2.203125 C 14.640625 -1.679688 14.160156 -1.257812 13.765625 -0.9375 C 13.378906 -0.613281 12.992188 -0.320312 12.609375 -0.0625 C 12.222656 0.1875 11.898438 0.363281 11.640625 0.46875 C 11.390625 0.582031 11.175781 0.640625 11 0.640625 C 10.5625 0.640625 10.203125 0.476562 9.921875 0.15625 C 9.648438 -0.164062 9.515625 -0.582031 9.515625 -1.09375 C 9.515625 -1.6875 9.632812 -2.269531 9.875 -2.84375 C 10.113281 -3.414062 10.453125 -4.003906 10.890625 -4.609375 C 11.328125 -5.222656 11.878906 -5.914062 12.546875 -6.6875 C 13.035156 -7.25 13.28125 -7.5625 13.28125 -7.625 C 13.28125 -7.664062 13.265625 -7.703125 13.234375 -7.734375 C 13.203125 -7.765625 13.171875 -7.78125 13.140625 -7.78125 C 13.023438 -7.78125 12.679688 -7.53125 12.109375 -7.03125 C 11.535156 -6.539062 10.796875 -5.816406 9.890625 -4.859375 C 8.992188 -3.910156 8.023438 -2.773438 6.984375 -1.453125 C 6.929688 -1.390625 6.742188 -1.148438 6.421875 -0.734375 C 6.109375 -0.328125 5.890625 -0.0664062 5.765625 0.046875 C 5.640625 0.171875 5.53125 0.234375 5.4375 0.234375 C 5.269531 0.234375 5.125 0.0703125 5 -0.25 C 4.882812 -0.582031 4.828125 -0.9375 4.828125 -1.3125 C 4.828125 -1.539062 4.898438 -1.785156 5.046875 -2.046875 C 5.203125 -2.316406 5.53125 -2.789062 6.03125 -3.46875 C 6.53125 -4.15625 6.941406 -4.734375 7.265625 -5.203125 C 7.597656 -5.671875 7.957031 -6.238281 8.34375 -6.90625 C 8.625 -7.375 8.828125 -7.742188 8.953125 -8.015625 C 9.085938 -8.285156 9.15625 -8.53125 9.15625 -8.75 C 9.15625 -8.925781 9.101562 -9.015625 9 -9.015625 C 8.78125 -9.015625 8.363281 -8.71875 7.75 -8.125 C 7.132812 -7.53125 6.375 -6.644531 5.46875 -5.46875 C 4.5625 -4.300781 3.613281 -2.945312 2.625 -1.40625 C 2.300781 -0.875 2.070312 -0.519531 1.9375 -0.34375 C 1.800781 -0.164062 1.65625 -0.078125 1.5 -0.078125 C 1.289062 -0.078125 1.097656 -0.289062 0.921875 -0.71875 C 0.742188 -1.15625 0.65625 -1.507812 0.65625 -1.78125 C 0.65625 -1.875 0.6875 -1.972656 0.75 -2.078125 C 1.53125 -3.109375 2.164062 -3.984375 2.65625 -4.703125 C 3.15625 -5.421875 3.597656 -6.101562 3.984375 -6.75 C 4.378906 -7.394531 4.660156 -7.925781 4.828125 -8.34375 C 5.003906 -8.769531 5.09375 -9.101562 5.09375 -9.34375 C 5.09375 -9.59375 4.976562 -9.71875 4.75 -9.71875 C 4.5625 -9.71875 4.242188 -9.597656 3.796875 -9.359375 C 3.347656 -9.117188 2.78125 -8.789062 2.09375 -8.375 C 1.40625 -7.957031 0.851562 -7.640625 0.4375 -7.421875 C 0.0195312 -7.203125 -0.289062 -7.09375 -0.5 -7.09375 C -0.695312 -7.09375 -0.796875 -7.203125 -0.796875 -7.421875 C -0.796875 -7.546875 -0.753906 -7.828125 -0.671875 -8.265625 C -0.585938 -8.710938 -0.5 -9.023438 -0.40625 -9.203125 C -0.289062 -9.429688 0.0195312 -9.738281 0.53125 -10.125 C 1.039062 -10.519531 1.320312 -10.71875 1.375 -10.71875 C 1.414062 -10.71875 1.4375 -10.695312 1.4375 -10.65625 C 1.4375 -10.632812 1.414062 -10.597656 1.375 -10.546875 C 1.132812 -10.347656 0.953125 -10.1875 0.828125 -10.0625 C 0.710938 -9.945312 0.640625 -9.816406 0.609375 -9.671875 C 1.679688 -10.316406 2.640625 -10.804688 3.484375 -11.140625 C 4.335938 -11.472656 4.925781 -11.640625 5.25 -11.640625 C 5.414062 -11.640625 5.570312 -11.53125 5.71875 -11.3125 C 5.863281 -11.09375 5.988281 -10.835938 6.09375 -10.546875 C 6.195312 -10.253906 6.25 -10.070312 6.25 -10 C 6.25 -9.695312 6.171875 -9.34375 6.015625 -8.9375 C 5.867188 -8.53125 5.664062 -8.054688 5.40625 -7.515625 C 5.144531 -6.972656 4.820312 -6.300781 4.4375 -5.5 C 4.738281 -5.882812 5.023438 -6.242188 5.296875 -6.578125 C 5.578125 -6.910156 5.851562 -7.234375 6.125 -7.546875 C 6.394531 -7.867188 6.671875 -8.191406 6.953125 -8.515625 C 7.335938 -8.953125 7.765625 -9.367188 8.234375 -9.765625 C 8.710938 -10.171875 9.15625 -10.5 9.5625 -10.75 C 9.976562 -11.007812 10.257812 -11.140625 10.40625 -11.140625 C 10.613281 -11.140625 10.796875 -11.023438 10.953125 -10.796875 C 11.117188 -10.578125 11.203125 -10.335938 11.203125 -10.078125 C 11.203125 -9.910156 11.085938 -9.585938 10.859375 -9.109375 C 10.640625 -8.628906 10.316406 -8.015625 9.890625 -7.265625 C 9.460938 -6.515625 8.894531 -5.546875 8.1875 -4.359375 C 8.851562 -5.066406 9.546875 -5.796875 10.265625 -6.546875 C 10.992188 -7.296875 11.53125 -7.84375 11.875 -8.1875 C 12.226562 -8.53125 12.523438 -8.796875 12.765625 -8.984375 C 13.085938 -9.234375 13.410156 -9.5 13.734375 -9.78125 C 14.054688 -10.0625 14.3125 -10.285156 14.5 -10.453125 C 14.6875 -10.617188 14.851562 -10.742188 15 -10.828125 C 15.144531 -10.910156 15.28125 -10.953125 15.40625 -10.953125 C 15.5625 -10.953125 15.753906 -10.773438 15.984375 -10.421875 C 16.210938 -10.078125 16.328125 -9.851562 16.328125 -9.75 C 16.328125 -9.632812 16.257812 -9.488281 16.125 -9.3125 C 15.988281 -9.144531 15.703125 -8.832031 15.265625 -8.375 C 14.472656 -7.507812 13.78125 -6.640625 13.1875 -5.765625 C 12.601562 -4.898438 12.160156 -4.109375 11.859375 -3.390625 C 11.554688 -2.679688 11.40625 -2.117188 11.40625 -1.703125 C 11.40625 -1.441406 11.453125 -1.25 11.546875 -1.125 C 11.648438 -1.007812 11.800781 -0.953125 12 -0.953125 C 12.1875 -0.953125 12.359375 -0.988281 12.515625 -1.0625 C 12.679688 -1.132812 12.863281 -1.234375 13.0625 -1.359375 C 13.257812 -1.492188 13.445312 -1.617188 13.625 -1.734375 C 13.875 -1.878906 14.113281 -2.035156 14.34375 -2.203125 C 14.582031 -2.367188 14.765625 -2.5 14.890625 -2.59375 C 15.023438 -2.695312 15.128906 -2.765625 15.203125 -2.796875 Z M 15.203125 -2.796875 "/></g></g><g transform="translate(294.920893, 109.940524)"><g><path d="M 1.171875 -4.34375 C 2.054688 -5.15625 2.914062 -5.753906 3.75 -6.140625 C 4.59375 -6.535156 5.242188 -6.734375 5.703125 -6.734375 C 5.828125 -6.734375 5.941406 -6.679688 6.046875 -6.578125 C 6.148438 -6.472656 6.234375 -6.351562 6.296875 -6.21875 C 6.359375 -6.082031 6.390625 -5.984375 6.390625 -5.921875 C 6.390625 -5.816406 6.347656 -5.738281 6.265625 -5.6875 C 6.179688 -5.632812 6.039062 -5.578125 5.84375 -5.515625 C 5.875 -5.421875 5.921875 -5.300781 5.984375 -5.15625 C 6.054688 -5.007812 6.109375 -4.890625 6.140625 -4.796875 C 6.179688 -4.703125 6.203125 -4.617188 6.203125 -4.546875 C 6.203125 -4.410156 6.054688 -4.148438 5.765625 -3.765625 C 5.484375 -3.378906 5.285156 -3.09375 5.171875 -2.90625 C 5.054688 -2.726562 5 -2.507812 5 -2.25 C 5 -1.8125 5.195312 -1.59375 5.59375 -1.59375 C 6.007812 -1.59375 6.65625 -1.976562 7.53125 -2.75 L 7.53125 -2.21875 C 6.039062 -0.570312 4.976562 0.25 4.34375 0.25 C 4.113281 0.25 3.945312 0.175781 3.84375 0.03125 C 3.75 -0.113281 3.703125 -0.335938 3.703125 -0.640625 C 3.703125 -1.097656 3.867188 -1.765625 4.203125 -2.640625 C 3.347656 -1.691406 2.710938 -1.015625 2.296875 -0.609375 C 1.878906 -0.210938 1.539062 -0.015625 1.28125 -0.015625 C 1.144531 -0.015625 0.976562 -0.125 0.78125 -0.34375 C 0.59375 -0.570312 0.421875 -0.863281 0.265625 -1.21875 C 0.117188 -1.570312 0.046875 -1.941406 0.046875 -2.328125 C 0.046875 -2.597656 0.0703125 -2.820312 0.125 -3 C 0.1875 -3.1875 0.289062 -3.378906 0.4375 -3.578125 C 0.59375 -3.773438 0.835938 -4.03125 1.171875 -4.34375 Z M 5.375 -5.3125 C 3.851562 -4.613281 2.769531 -4.019531 2.125 -3.53125 C 1.476562 -3.039062 1.15625 -2.539062 1.15625 -2.03125 C 1.15625 -1.84375 1.1875 -1.6875 1.25 -1.5625 C 1.3125 -1.445312 1.398438 -1.390625 1.515625 -1.390625 C 1.578125 -1.390625 1.691406 -1.429688 1.859375 -1.515625 C 2.472656 -1.878906 3.035156 -2.351562 3.546875 -2.9375 C 4.054688 -3.519531 4.664062 -4.3125 5.375 -5.3125 Z M 5.375 -5.3125 "/></g></g><g transform="translate(302.223975, 109.940524)"><g><path d="M 6.71875 -2.765625 L 6.71875 -2.21875 C 6.207031 -1.695312 5.765625 -1.269531 5.390625 -0.9375 C 5.015625 -0.601562 4.6875 -0.347656 4.40625 -0.171875 C 4.132812 -0.00390625 3.898438 0.078125 3.703125 0.078125 C 3.253906 0.078125 3.03125 -0.191406 3.03125 -0.734375 C 3.03125 -1.171875 3.171875 -1.675781 3.453125 -2.25 C 3.734375 -2.820312 4.140625 -3.492188 4.671875 -4.265625 C 4.410156 -4.117188 4.160156 -3.945312 3.921875 -3.75 C 3.691406 -3.5625 3.484375 -3.363281 3.296875 -3.15625 C 3.117188 -2.945312 2.96875 -2.769531 2.84375 -2.625 C 2.46875 -2.195312 2.101562 -1.757812 1.75 -1.3125 C 1.394531 -0.863281 1.15625 -0.570312 1.03125 -0.4375 C 0.914062 -0.300781 0.800781 -0.234375 0.6875 -0.234375 C 0.226562 -0.234375 0 -0.796875 0 -1.921875 C 0 -2.296875 0.0507812 -2.703125 0.15625 -3.140625 C 0.269531 -3.585938 0.570312 -4.175781 1.0625 -4.90625 C 2.09375 -6.445312 2.972656 -7.703125 3.703125 -8.671875 C 4.429688 -9.648438 5.035156 -10.390625 5.515625 -10.890625 C 5.992188 -11.390625 6.316406 -11.632812 6.484375 -11.625 C 6.679688 -11.613281 6.84375 -11.570312 6.96875 -11.5 C 7.09375 -11.4375 7.15625 -11.363281 7.15625 -11.28125 C 7.15625 -11.132812 7.054688 -10.894531 6.859375 -10.5625 C 6.660156 -10.226562 6.3125 -9.703125 5.8125 -8.984375 C 5.28125 -8.222656 4.898438 -7.6875 4.671875 -7.375 C 4.453125 -7.070312 4.125 -6.640625 3.6875 -6.078125 C 3.25 -5.515625 2.84375 -5.007812 2.46875 -4.5625 C 2.101562 -4.125 1.6875 -3.644531 1.21875 -3.125 L 1.21875 -2.078125 C 2.007812 -2.953125 2.691406 -3.664062 3.265625 -4.21875 C 3.835938 -4.769531 4.320312 -5.1875 4.71875 -5.46875 C 5.113281 -5.757812 5.40625 -5.90625 5.59375 -5.90625 C 5.769531 -5.90625 5.929688 -5.800781 6.078125 -5.59375 C 6.234375 -5.382812 6.3125 -5.210938 6.3125 -5.078125 C 6.3125 -5.023438 6.285156 -4.953125 6.234375 -4.859375 C 5.804688 -4.359375 5.46875 -3.941406 5.21875 -3.609375 C 4.976562 -3.273438 4.789062 -2.976562 4.65625 -2.71875 C 4.519531 -2.457031 4.453125 -2.234375 4.453125 -2.046875 C 4.453125 -1.773438 4.582031 -1.640625 4.84375 -1.640625 C 5.125 -1.640625 5.75 -2.015625 6.71875 -2.765625 Z M 6.71875 -2.765625 "/></g></g><g transform="translate(308.797628, 109.940524)"><g><path d="M 1.171875 -4.34375 C 2.054688 -5.15625 2.914062 -5.753906 3.75 -6.140625 C 4.59375 -6.535156 5.242188 -6.734375 5.703125 -6.734375 C 5.828125 -6.734375 5.941406 -6.679688 6.046875 -6.578125 C 6.148438 -6.472656 6.234375 -6.351562 6.296875 -6.21875 C 6.359375 -6.082031 6.390625 -5.984375 6.390625 -5.921875 C 6.390625 -5.816406 6.347656 -5.738281 6.265625 -5.6875 C 6.179688 -5.632812 6.039062 -5.578125 5.84375 -5.515625 C 5.875 -5.421875 5.921875 -5.300781 5.984375 -5.15625 C 6.054688 -5.007812 6.109375 -4.890625 6.140625 -4.796875 C 6.179688 -4.703125 6.203125 -4.617188 6.203125 -4.546875 C 6.203125 -4.410156 6.054688 -4.148438 5.765625 -3.765625 C 5.484375 -3.378906 5.285156 -3.09375 5.171875 -2.90625 C 5.054688 -2.726562 5 -2.507812 5 -2.25 C 5 -1.8125 5.195312 -1.59375 5.59375 -1.59375 C 6.007812 -1.59375 6.65625 -1.976562 7.53125 -2.75 L 7.53125 -2.21875 C 6.039062 -0.570312 4.976562 0.25 4.34375 0.25 C 4.113281 0.25 3.945312 0.175781 3.84375 0.03125 C 3.75 -0.113281 3.703125 -0.335938 3.703125 -0.640625 C 3.703125 -1.097656 3.867188 -1.765625 4.203125 -2.640625 C 3.347656 -1.691406 2.710938 -1.015625 2.296875 -0.609375 C 1.878906 -0.210938 1.539062 -0.015625 1.28125 -0.015625 C 1.144531 -0.015625 0.976562 -0.125 0.78125 -0.34375 C 0.59375 -0.570312 0.421875 -0.863281 0.265625 -1.21875 C 0.117188 -1.570312 0.046875 -1.941406 0.046875 -2.328125 C 0.046875 -2.597656 0.0703125 -2.820312 0.125 -3 C 0.1875 -3.1875 0.289062 -3.378906 0.4375 -3.578125 C 0.59375 -3.773438 0.835938 -4.03125 1.171875 -4.34375 Z M 5.375 -5.3125 C 3.851562 -4.613281 2.769531 -4.019531 2.125 -3.53125 C 1.476562 -3.039062 1.15625 -2.539062 1.15625 -2.03125 C 1.15625 -1.84375 1.1875 -1.6875 1.25 -1.5625 C 1.3125 -1.445312 1.398438 -1.390625 1.515625 -1.390625 C 1.578125 -1.390625 1.691406 -1.429688 1.859375 -1.515625 C 2.472656 -1.878906 3.035156 -2.351562 3.546875 -2.9375 C 4.054688 -3.519531 4.664062 -4.3125 5.375 -5.3125 Z M 5.375 -5.3125 "/></g></g><g transform="translate(316.100709, 109.940524)"><g><path d="M 0.109375 -2.515625 L 0.109375 -2.734375 C 1.617188 -4.328125 2.65625 -5.441406 3.21875 -6.078125 C 3.351562 -6.796875 3.664062 -7.15625 4.15625 -7.15625 C 4.28125 -7.15625 4.410156 -7.125 4.546875 -7.0625 L 4.609375 -6.890625 C 4.585938 -6.816406 4.578125 -6.71875 4.578125 -6.59375 C 4.578125 -6.476562 4.617188 -6.269531 4.703125 -5.96875 C 4.785156 -5.664062 4.847656 -5.410156 4.890625 -5.203125 C 4.941406 -5.003906 4.96875 -4.773438 4.96875 -4.515625 C 4.96875 -4.128906 4.878906 -3.757812 4.703125 -3.40625 C 4.523438 -3.050781 4.269531 -2.710938 3.9375 -2.390625 C 3.601562 -2.066406 3.171875 -1.734375 2.640625 -1.390625 C 2.859375 -1.359375 3.023438 -1.34375 3.140625 -1.34375 C 3.378906 -1.34375 3.640625 -1.398438 3.921875 -1.515625 C 4.203125 -1.640625 4.488281 -1.800781 4.78125 -2 C 5.070312 -2.195312 5.410156 -2.457031 5.796875 -2.78125 L 5.796875 -2.203125 C 5.046875 -1.460938 4.375 -0.90625 3.78125 -0.53125 C 3.1875 -0.15625 2.675781 0.03125 2.25 0.03125 C 1.695312 0.03125 1.1875 -0.203125 0.71875 -0.671875 C 0.445312 -0.953125 0.273438 -1.21875 0.203125 -1.46875 C 0.140625 -1.726562 0.109375 -2.078125 0.109375 -2.515625 Z M 3.390625 -3.875 L 3.21875 -5.15625 C 2.863281 -4.738281 2.085938 -3.945312 0.890625 -2.78125 C 1.242188 -2.707031 1.484375 -2.601562 1.609375 -2.46875 C 1.742188 -2.34375 1.925781 -2.097656 2.15625 -1.734375 C 2.5625 -1.898438 2.867188 -2.125 3.078125 -2.40625 C 3.296875 -2.6875 3.40625 -3.070312 3.40625 -3.5625 C 3.40625 -3.625 3.398438 -3.675781 3.390625 -3.71875 C 3.390625 -3.769531 3.390625 -3.820312 3.390625 -3.875 Z M 3.390625 -3.875 "/></g></g><g transform="translate(321.716437, 109.940524)"><g><path d="M 3.75 -6.703125 C 3.601562 -6.703125 3.460938 -6.753906 3.328125 -6.859375 C 3.191406 -6.972656 3.125 -7.113281 3.125 -7.28125 C 3.125 -7.539062 3.25 -7.828125 3.5 -8.140625 C 3.75 -8.460938 4.003906 -8.625 4.265625 -8.625 C 4.441406 -8.625 4.585938 -8.566406 4.703125 -8.453125 C 4.816406 -8.347656 4.875 -8.191406 4.875 -7.984375 C 4.875 -7.734375 4.753906 -7.457031 4.515625 -7.15625 C 4.273438 -6.851562 4.019531 -6.703125 3.75 -6.703125 Z M 4.34375 -2.765625 L 4.34375 -2.125 C 3.769531 -1.394531 3.238281 -0.84375 2.75 -0.46875 C 2.257812 -0.09375 1.84375 0.09375 1.5 0.09375 C 1.019531 0.09375 0.660156 -0.15625 0.421875 -0.65625 C 0.191406 -1.164062 0.078125 -1.722656 0.078125 -2.328125 C 0.078125 -2.546875 0.0976562 -2.757812 0.140625 -2.96875 C 0.191406 -3.175781 0.25 -3.347656 0.3125 -3.484375 C 0.375 -3.617188 0.492188 -3.832031 0.671875 -4.125 C 1.503906 -5.414062 2.265625 -6.0625 2.953125 -6.0625 C 3.304688 -6.0625 3.484375 -5.925781 3.484375 -5.65625 C 3.484375 -5.46875 3.367188 -5.171875 3.140625 -4.765625 C 2.910156 -4.367188 2.703125 -4.085938 2.515625 -3.921875 C 2.015625 -3.429688 1.6875 -3.085938 1.53125 -2.890625 C 1.375 -2.703125 1.296875 -2.484375 1.296875 -2.234375 C 1.296875 -2.023438 1.375 -1.847656 1.53125 -1.703125 C 1.6875 -1.566406 1.890625 -1.5 2.140625 -1.5 C 2.421875 -1.5 2.722656 -1.597656 3.046875 -1.796875 C 3.378906 -1.992188 3.8125 -2.316406 4.34375 -2.765625 Z M 4.34375 -2.765625 "/></g></g><g transform="translate(325.838152, 109.940524)"><g><path d="M 0.109375 -2.515625 L 0.109375 -2.734375 C 1.617188 -4.328125 2.65625 -5.441406 3.21875 -6.078125 C 3.351562 -6.796875 3.664062 -7.15625 4.15625 -7.15625 C 4.28125 -7.15625 4.410156 -7.125 4.546875 -7.0625 L 4.609375 -6.890625 C 4.585938 -6.816406 4.578125 -6.71875 4.578125 -6.59375 C 4.578125 -6.476562 4.617188 -6.269531 4.703125 -5.96875 C 4.785156 -5.664062 4.847656 -5.410156 4.890625 -5.203125 C 4.941406 -5.003906 4.96875 -4.773438 4.96875 -4.515625 C 4.96875 -4.128906 4.878906 -3.757812 4.703125 -3.40625 C 4.523438 -3.050781 4.269531 -2.710938 3.9375 -2.390625 C 3.601562 -2.066406 3.171875 -1.734375 2.640625 -1.390625 C 2.859375 -1.359375 3.023438 -1.34375 3.140625 -1.34375 C 3.378906 -1.34375 3.640625 -1.398438 3.921875 -1.515625 C 4.203125 -1.640625 4.488281 -1.800781 4.78125 -2 C 5.070312 -2.195312 5.410156 -2.457031 5.796875 -2.78125 L 5.796875 -2.203125 C 5.046875 -1.460938 4.375 -0.90625 3.78125 -0.53125 C 3.1875 -0.15625 2.675781 0.03125 2.25 0.03125 C 1.695312 0.03125 1.1875 -0.203125 0.71875 -0.671875 C 0.445312 -0.953125 0.273438 -1.21875 0.203125 -1.46875 C 0.140625 -1.726562 0.109375 -2.078125 0.109375 -2.515625 Z M 3.390625 -3.875 L 3.21875 -5.15625 C 2.863281 -4.738281 2.085938 -3.945312 0.890625 -2.78125 C 1.242188 -2.707031 1.484375 -2.601562 1.609375 -2.46875 C 1.742188 -2.34375 1.925781 -2.097656 2.15625 -1.734375 C 2.5625 -1.898438 2.867188 -2.125 3.078125 -2.40625 C 3.296875 -2.6875 3.40625 -3.070312 3.40625 -3.5625 C 3.40625 -3.625 3.398438 -3.675781 3.390625 -3.71875 C 3.390625 -3.769531 3.390625 -3.820312 3.390625 -3.875 Z M 3.390625 -3.875 "/></g></g><g transform="translate(331.453879, 109.940524)"><g><path d="M 4.734375 -1.734375 C 4.734375 -1.472656 4.832031 -1.34375 5.03125 -1.34375 C 5.289062 -1.34375 5.742188 -1.773438 6.390625 -2.640625 C 6.367188 -2.804688 6.359375 -2.914062 6.359375 -2.96875 C 6.359375 -3.289062 6.484375 -3.675781 6.734375 -4.125 C 6.984375 -4.582031 7.269531 -4.984375 7.59375 -5.328125 C 7.925781 -5.671875 8.175781 -5.84375 8.34375 -5.84375 C 8.550781 -5.84375 8.65625 -5.59375 8.65625 -5.09375 C 8.65625 -4.6875 8.566406 -4.285156 8.390625 -3.890625 C 8.222656 -3.503906 7.972656 -3.109375 7.640625 -2.703125 C 7.691406 -2.648438 7.75 -2.59375 7.8125 -2.53125 C 7.882812 -2.476562 7.957031 -2.429688 8.03125 -2.390625 C 8.101562 -2.359375 8.179688 -2.34375 8.265625 -2.34375 C 8.453125 -2.34375 8.695312 -2.492188 9 -2.796875 L 9 -2.1875 C 8.539062 -1.695312 8.140625 -1.453125 7.796875 -1.453125 C 7.597656 -1.453125 7.441406 -1.476562 7.328125 -1.53125 C 7.210938 -1.582031 7.066406 -1.671875 6.890625 -1.796875 C 5.816406 -0.503906 5 0.140625 4.4375 0.140625 C 4.21875 0.140625 4.046875 0.0625 3.921875 -0.09375 C 3.796875 -0.257812 3.734375 -0.488281 3.734375 -0.78125 C 3.734375 -0.914062 3.789062 -1.441406 3.90625 -2.359375 C 3.675781 -2.085938 3.40625 -1.773438 3.09375 -1.421875 C 2.789062 -1.066406 2.546875 -0.789062 2.359375 -0.59375 C 2.171875 -0.40625 1.992188 -0.257812 1.828125 -0.15625 C 1.671875 -0.0507812 1.515625 0 1.359375 0 C 1.191406 0 1 -0.0976562 0.78125 -0.296875 C 0.5625 -0.492188 0.375 -0.757812 0.21875 -1.09375 C 0.0703125 -1.425781 0 -1.78125 0 -2.15625 C 0 -2.53125 0.0507812 -2.847656 0.15625 -3.109375 C 0.257812 -3.367188 0.5 -3.765625 0.875 -4.296875 C 1.21875 -4.765625 1.519531 -5.144531 1.78125 -5.4375 C 2.050781 -5.738281 2.289062 -5.972656 2.5 -6.140625 C 2.71875 -6.304688 2.894531 -6.390625 3.03125 -6.390625 C 3.101562 -6.390625 3.207031 -6.367188 3.34375 -6.328125 C 3.476562 -6.296875 3.59375 -6.242188 3.6875 -6.171875 C 3.789062 -6.109375 3.84375 -6.046875 3.84375 -5.984375 C 3.84375 -5.753906 3.742188 -5.46875 3.546875 -5.125 C 3.359375 -4.789062 3.066406 -4.410156 2.671875 -3.984375 C 2.285156 -3.566406 1.847656 -3.140625 1.359375 -2.703125 C 1.222656 -2.296875 1.15625 -1.96875 1.15625 -1.71875 C 1.15625 -1.632812 1.175781 -1.554688 1.21875 -1.484375 C 1.269531 -1.410156 1.332031 -1.375 1.40625 -1.375 C 1.644531 -1.375 2.101562 -1.75 2.78125 -2.5 C 3.46875 -3.25 4.375 -4.382812 5.5 -5.90625 C 5.539062 -5.96875 5.625 -6 5.75 -6 C 5.90625 -6 6.039062 -5.960938 6.15625 -5.890625 C 6.28125 -5.828125 6.34375 -5.742188 6.34375 -5.640625 C 6.34375 -5.566406 6.1875 -5.21875 5.875 -4.59375 C 5.570312 -3.976562 5.304688 -3.410156 5.078125 -2.890625 C 4.847656 -2.378906 4.734375 -1.992188 4.734375 -1.734375 Z M 4.734375 -1.734375 "/></g></g><g transform="translate(340.277338, 109.940524)"><g><path d="M 1.171875 -4.34375 C 2.054688 -5.15625 2.914062 -5.753906 3.75 -6.140625 C 4.59375 -6.535156 5.242188 -6.734375 5.703125 -6.734375 C 5.828125 -6.734375 5.941406 -6.679688 6.046875 -6.578125 C 6.148438 -6.472656 6.234375 -6.351562 6.296875 -6.21875 C 6.359375 -6.082031 6.390625 -5.984375 6.390625 -5.921875 C 6.390625 -5.816406 6.347656 -5.738281 6.265625 -5.6875 C 6.179688 -5.632812 6.039062 -5.578125 5.84375 -5.515625 C 5.875 -5.421875 5.921875 -5.300781 5.984375 -5.15625 C 6.054688 -5.007812 6.109375 -4.890625 6.140625 -4.796875 C 6.179688 -4.703125 6.203125 -4.617188 6.203125 -4.546875 C 6.203125 -4.410156 6.054688 -4.148438 5.765625 -3.765625 C 5.484375 -3.378906 5.285156 -3.09375 5.171875 -2.90625 C 5.054688 -2.726562 5 -2.507812 5 -2.25 C 5 -1.8125 5.195312 -1.59375 5.59375 -1.59375 C 6.007812 -1.59375 6.65625 -1.976562 7.53125 -2.75 L 7.53125 -2.21875 C 6.039062 -0.570312 4.976562 0.25 4.34375 0.25 C 4.113281 0.25 3.945312 0.175781 3.84375 0.03125 C 3.75 -0.113281 3.703125 -0.335938 3.703125 -0.640625 C 3.703125 -1.097656 3.867188 -1.765625 4.203125 -2.640625 C 3.347656 -1.691406 2.710938 -1.015625 2.296875 -0.609375 C 1.878906 -0.210938 1.539062 -0.015625 1.28125 -0.015625 C 1.144531 -0.015625 0.976562 -0.125 0.78125 -0.34375 C 0.59375 -0.570312 0.421875 -0.863281 0.265625 -1.21875 C 0.117188 -1.570312 0.046875 -1.941406 0.046875 -2.328125 C 0.046875 -2.597656 0.0703125 -2.820312 0.125 -3 C 0.1875 -3.1875 0.289062 -3.378906 0.4375 -3.578125 C 0.59375 -3.773438 0.835938 -4.03125 1.171875 -4.34375 Z M 5.375 -5.3125 C 3.851562 -4.613281 2.769531 -4.019531 2.125 -3.53125 C 1.476562 -3.039062 1.15625 -2.539062 1.15625 -2.03125 C 1.15625 -1.84375 1.1875 -1.6875 1.25 -1.5625 C 1.3125 -1.445312 1.398438 -1.390625 1.515625 -1.390625 C 1.578125 -1.390625 1.691406 -1.429688 1.859375 -1.515625 C 2.472656 -1.878906 3.035156 -2.351562 3.546875 -2.9375 C 4.054688 -3.519531 4.664062 -4.3125 5.375 -5.3125 Z M 5.375 -5.3125 "/></g></g></g></svg>