<svg width="51" height="51" viewBox="0 0 51 51" fill="none" xmlns="http://www.w3.org/2000/svg">
<path d="M39.8365 0.5H11.1635C5.27423 0.5 0.5 5.27423 0.5 11.1635V39.8365C0.5 45.7258 5.27423 50.5 11.1635 50.5H39.8365C45.7258 50.5 50.5 45.7258 50.5 39.8365V11.1635C50.5 5.27423 45.7258 0.5 39.8365 0.5Z" fill="#0A93E2"/>
<path fill-rule="evenodd" clip-rule="evenodd" d="M40.708 17.9159C39.6118 18.4013 38.4491 18.7197 37.2585 18.8607C38.5036 18.1137 39.4557 16.9345 39.8951 15.5357C38.7174 16.2337 37.4296 16.7266 36.0867 16.9931C35.2638 16.1098 34.1939 15.495 33.0164 15.2288C31.8388 14.9627 30.6085 15.0576 29.4857 15.5012C28.3629 15.9447 27.3999 16.7164 26.7222 17.7154C26.0446 18.7145 25.6837 19.8946 25.6868 21.1018C25.6853 21.5627 25.737 22.0223 25.8406 22.4714C23.4517 22.3516 21.1146 21.7309 18.9811 20.6496C16.8475 19.5683 14.9651 18.0506 13.456 16.1948C12.684 17.5177 12.4466 19.0855 12.7924 20.5777C13.1382 22.0698 14.041 23.3734 15.3162 24.2218C14.3608 24.1918 13.4265 23.9331 12.5917 23.4674V23.5407C12.5917 26.4556 14.6644 28.8871 17.4108 29.4364C16.5273 29.6775 15.6002 29.7126 14.701 29.5389C15.0851 30.7322 15.8321 31.7759 16.8378 32.5243C17.8435 33.2726 19.0577 33.6884 20.3111 33.7135C19.0645 34.6934 17.6368 35.4177 16.1099 35.845C14.583 36.2723 12.9867 36.3942 11.4126 36.2036C14.0712 37.9101 17.2277 38.8988 20.626 38.8988C31.685 38.8988 37.7272 29.744 37.7272 21.7976C37.7272 21.5413 37.7272 21.2849 37.7126 21.0213C38.8844 20.179 39.9097 19.1171 40.7154 17.9159H40.708Z" fill="white"/>
</svg>
