<svg width="53" height="45" viewBox="0 0 53 45" fill="none" xmlns="http://www.w3.org/2000/svg">
<rect width="53" height="45" rx="10" fill="#FF0001"/>
<path d="M34.1975 14.5273C34.1975 14.5273 34.486 14.8765 35.0631 15.5748C35.6401 16.2732 35.9286 17.445 35.9286 19.0902C35.9286 20.7354 35.3516 22.2564 34.1975 23.653C33.0435 25.0497 31.469 26.1534 29.4741 26.9642C27.4791 27.775 25.3092 28.1804 22.9643 28.1804C21.9085 28.1804 20.8281 28.0857 19.7232 27.8963C18.2009 28.9379 16.4944 29.6954 14.6038 30.1689C14.1618 30.2754 13.6339 30.3701 13.0201 30.4529H12.9648C12.8298 30.4529 12.704 30.4056 12.5873 30.3109C12.4707 30.2162 12.4001 30.0919 12.3756 29.9381C12.3633 29.9025 12.3571 29.8641 12.3571 29.8227C12.3571 29.7812 12.3602 29.7428 12.3664 29.7073C12.3725 29.6717 12.3848 29.6362 12.4032 29.6007C12.4216 29.5652 12.4369 29.5356 12.4492 29.512C12.4615 29.4883 12.483 29.4557 12.5137 29.4143C12.5444 29.3729 12.5689 29.3433 12.5873 29.3255C12.6057 29.3078 12.6334 29.2782 12.6702 29.2368C12.707 29.1953 12.7316 29.1687 12.7439 29.1569C12.8052 29.0859 12.9464 28.9379 13.1674 28.713C13.3884 28.4881 13.548 28.3135 13.6462 28.1893C13.7444 28.065 13.8825 27.8934 14.0605 27.6744C14.2386 27.4554 14.392 27.2276 14.5209 26.9908C14.6498 26.7541 14.7757 26.4937 14.8984 26.2097C13.3761 25.3575 12.1791 24.31 11.3075 23.0672C10.4358 21.8244 10 20.4987 10 19.0902C10 17.445 10.577 15.924 11.731 14.5273C12.885 13.1307 14.4595 12.0269 16.4545 11.2162C18.4495 10.4054 20.6194 10 22.9643 10C25.3092 10 27.4791 10.4054 29.4741 11.2162C31.469 12.0269 33.0435 13.1307 34.1975 14.5273ZM43 23.6353C43 25.0556 42.5642 26.3842 41.6925 27.6211C40.8209 28.858 39.6239 29.9025 38.1016 30.7548C38.2243 31.0388 38.3502 31.2992 38.4791 31.5359C38.608 31.7727 38.7614 32.0005 38.9395 32.2195C39.1175 32.4385 39.2556 32.6101 39.3538 32.7344C39.452 32.8586 39.6116 33.0332 39.8326 33.2581C40.0536 33.483 40.1948 33.6309 40.2561 33.702C40.2684 33.7138 40.293 33.7404 40.3298 33.7819C40.3666 33.8233 40.3943 33.8529 40.4127 33.8706C40.4311 33.8884 40.4556 33.918 40.4863 33.9594C40.517 34.0008 40.5385 34.0334 40.5508 34.0571C40.5631 34.0807 40.5784 34.1103 40.5968 34.1458C40.6152 34.1813 40.6275 34.2168 40.6336 34.2523C40.6398 34.2879 40.6429 34.3263 40.6429 34.3678C40.6429 34.4092 40.6367 34.4476 40.6244 34.4832C40.5876 34.6489 40.5078 34.7791 40.385 34.8737C40.2623 34.9684 40.1272 35.0099 39.9799 34.998C39.3661 34.9152 38.8382 34.8205 38.3962 34.714C36.5056 34.2405 34.7991 33.483 33.2768 32.4414C32.1719 32.6308 31.0915 32.7255 30.0357 32.7255C26.7087 32.7255 23.8114 31.9443 21.3438 30.3819C22.0558 30.4293 22.596 30.4529 22.9643 30.4529C24.9408 30.4529 26.8376 30.1866 28.6546 29.654C30.4715 29.1214 32.0921 28.3579 33.5162 27.3637C35.0508 26.2748 36.2294 25.0201 37.0519 23.5998C37.8744 22.1794 38.2857 20.6762 38.2857 19.0902C38.2857 18.1788 38.1445 17.2793 37.8622 16.3915C39.4459 17.2319 40.6981 18.2853 41.6189 19.5518C42.5396 20.8183 43 22.1794 43 23.6353Z" fill="white"/>
</svg>
