<svg width="1440" height="201" viewBox="0 0 1440 201" fill="none" xmlns="http://www.w3.org/2000/svg">
<path opacity="0.3" d="M1440 89C1414.28 116.77 1362.73 144.009 1210.71 146C877.515 150.363 666.458 43 418.708 43C279.825 43 112.962 84.2172 -0.00012207 122V181H1440L1440 89Z" fill="#344D67"/>
<path opacity="0.3" d="M77.2881 59.4671C258.01 50.4448 348.198 146.002 681.391 150.365C1014.58 154.728 1126.82 0.0671051 1374.57 0.0671051C1400.03 0.0671051 1421.83 -0.163308 1440 0.229776V159.23H0L0 73.2298C0 73.2298 40.9749 61.28 77.2881 59.4671Z" fill="#344D67"/>
<path opacity="0.3" d="M142.75 45.5019C323.472 36.4795 347.198 152.037 680.391 156.4C1013.58 160.763 1125.82 46.1018 1373.57 46.1018C1397.9 46.1018 1419.29 47.2351 1438.1 49.279L1439 165.265H-1V110.265C33.8121 75.7426 80.4837 48.6104 142.75 45.5019Z" fill="#344D67"/>
<path opacity="0.3" d="M77.2881 71.4671C258.01 62.4448 348.198 158.002 681.391 162.365C1014.58 166.728 1126.82 12.0671 1374.57 12.0671C1400.03 12.0671 1421.83 11.8367 1440 12.2298V171.23H0L0 85.2298C0 85.2298 40.9749 73.28 77.2881 71.4671Z" fill="#344D67"/>
<path d="M1440 200.275H0V159.275C468.668 82.1234 1214.4 221.048 1440 138.275V200.275Z" fill="white"/>
</svg>
