<svg width="53" height="45" viewBox="0 0 53 45" fill="none" xmlns="http://www.w3.org/2000/svg">
<rect width="53" height="45" rx="10" fill="#FF0001"/>
<path d="M42.4039 13.4512C42.8013 13.844 43 14.321 43 14.8822C43 15.4433 42.8013 15.9203 42.4039 16.3131L26.9897 31.5488L24.0942 34.4108C23.6968 34.8036 23.2142 35 22.6465 35C22.0787 35 21.5961 34.8036 21.1987 34.4108L18.3032 31.5488L10.5961 23.931C10.1987 23.5382 10 23.0612 10 22.5C10 21.9388 10.1987 21.4618 10.5961 21.069L13.4916 18.2071C13.889 17.8143 14.3716 17.6178 14.9394 17.6178C15.5071 17.6178 15.9897 17.8143 16.3871 18.2071L22.6465 24.415L36.6129 10.5892C37.0103 10.1964 37.4929 10 38.0606 10C38.6284 10 39.111 10.1964 39.5084 10.5892L42.4039 13.4512Z" fill="white"/>
</svg>
