<svg width="59" height="60" viewBox="0 0 59 60" fill="none" xmlns="http://www.w3.org/2000/svg">
<path d="M0.5 0.5H48.5C54.0229 0.5 58.5 4.97715 58.5 10.5V49.5C58.5 55.0228 54.0228 59.5 48.5 59.5H0.5V0.5Z" fill="#344D67"/>
<mask id="mask0_167_907" style="mask-type:luminance" maskUnits="userSpaceOnUse" x="14" y="15" width="31" height="30">
<path d="M44.5 15H14.5V45H44.5V15Z" fill="white"/>
</mask>
<g mask="url(#mask0_167_907)">
<path d="M18.3513 32.0346L27.1024 30.2843C27.8838 30.1282 27.8838 29.8741 27.1024 29.718L18.3513 27.9677C17.8301 27.8636 17.3224 27.3555 17.2184 26.8347L15.468 18.0836C15.3115 17.3018 15.7723 16.9385 16.4965 17.2727L43.2007 29.5975C43.683 29.8202 43.683 30.1821 43.2007 30.4047L16.4965 42.7296C15.7723 43.0638 15.3115 42.7005 15.468 41.9186L17.2184 33.1675C17.3224 32.6468 17.8301 32.1386 18.3513 32.0346Z" fill="white"/>
</g>
</svg>
