<svg width="53" height="45" viewBox="0 0 53 45" fill="none" xmlns="http://www.w3.org/2000/svg">
<rect width="53" height="45" rx="10" fill="#FF0001"/>
<path d="M21.0951 18.9437C21.0951 18.9437 21.2102 19.0454 21.4404 19.2489C21.6706 19.4523 21.7857 19.8416 21.7857 20.4167C21.7857 20.9918 21.5555 21.4827 21.0951 21.8896C20.6348 22.2965 20.0792 22.5 19.4286 22.5C18.7779 22.5 18.2224 22.2965 17.762 21.8896C17.3016 21.4827 17.0714 20.9918 17.0714 20.4167C17.0714 19.8416 17.3016 19.3506 17.762 18.9437C18.2224 18.5368 18.7779 18.3333 19.4286 18.3333C20.0792 18.3333 20.6348 18.5368 21.0951 18.9437ZM28.1666 18.9437C28.1666 18.9437 28.2817 19.0454 28.5119 19.2489C28.742 19.4523 28.8571 19.8416 28.8571 20.4167C28.8571 20.9918 28.627 21.4827 28.1666 21.8896C27.7062 22.2965 27.1507 22.5 26.5 22.5C25.8493 22.5 25.2938 22.2965 24.8334 21.8896C24.373 21.4827 24.1429 20.9918 24.1429 20.4167C24.1429 19.8416 24.373 19.3506 24.8334 18.9437C25.2938 18.5368 25.8493 18.3333 26.5 18.3333C27.1507 18.3333 27.7062 18.5368 28.1666 18.9437ZM35.238 18.9437C35.238 18.9437 35.3531 19.0454 35.5833 19.2489C35.8135 19.4523 35.9286 19.8416 35.9286 20.4167C35.9286 20.9918 35.6984 21.4827 35.238 21.8896C34.7776 22.2965 34.2221 22.5 33.5714 22.5C32.9208 22.5 32.3652 22.2965 31.9049 21.8896C31.4445 21.4827 31.2143 20.9918 31.2143 20.4167C31.2143 19.8416 31.4445 19.3506 31.9049 18.9437C32.3652 18.5368 32.9208 18.3333 33.5714 18.3333C34.2221 18.3333 34.7776 18.5368 35.238 18.9437ZM33.5254 13.2145C33.5254 13.2145 32.9806 13.026 31.891 12.6489C30.8015 12.2719 29.0045 12.0833 26.5 12.0833C23.9955 12.0833 21.6537 12.4604 19.4746 13.2145C17.2955 13.9686 15.5645 14.9859 14.2815 16.2663C12.9986 17.5467 12.3571 18.9301 12.3571 20.4167C12.3571 21.6319 12.796 22.7903 13.6738 23.8916C14.5516 24.9929 15.7885 25.9451 17.3845 26.748L18.9866 27.5618L18.4894 29.1243C18.1948 30.1118 17.7651 31.0449 17.2003 31.9238C19.0664 31.2402 20.7545 30.3125 22.2645 29.1406L23.0564 28.5221L24.106 28.6198C24.9531 28.7066 25.7511 28.75 26.5 28.75C29.0045 28.75 31.3463 28.3729 33.5254 27.6188C35.7045 26.8647 37.4355 25.8474 38.7185 24.5671C40.0014 23.2867 40.6429 21.9032 40.6429 20.4167C40.6429 18.9301 40.0014 17.5467 38.7185 16.2663C37.4355 14.9859 35.7045 13.9686 33.5254 13.2145ZM43 20.4167C43 22.3047 42.2634 24.0489 40.7902 25.6494C39.317 27.2499 37.3158 28.514 34.7868 29.4417C32.2578 30.3695 29.4955 30.8333 26.5 30.8333C25.6406 30.8333 24.7506 30.7899 23.8298 30.7031C21.399 32.602 18.5753 33.9149 15.3588 34.6419C14.7573 34.7938 14.0575 34.9132 13.2595 35H13.1674C12.9833 35 12.8175 34.943 12.6702 34.8291C12.5229 34.7152 12.4247 34.566 12.3756 34.3815V34.3652C12.3387 34.3218 12.3357 34.2567 12.3664 34.1699C12.397 34.0831 12.4093 34.0289 12.4032 34.0072C12.397 33.9855 12.4247 33.9339 12.486 33.8525C12.5474 33.7712 12.5843 33.7223 12.5965 33.7061C12.6088 33.6898 12.6518 33.6437 12.7254 33.5677C12.7991 33.4918 12.8482 33.4429 12.8728 33.4212C12.9587 33.3344 13.149 33.1472 13.4436 32.8597C13.7383 32.5722 13.9501 32.366 14.079 32.2412C14.2079 32.1164 14.3982 31.9021 14.6498 31.5983C14.9015 31.2945 15.101 31.0178 15.2483 30.7682C15.3956 30.5187 15.5614 30.1986 15.7455 29.8079C15.9297 29.4173 16.0893 29.005 16.2243 28.571C14.2969 27.6053 12.7776 26.4117 11.6666 24.9902C10.5555 23.5688 10 22.0443 10 20.4167C10 19.0061 10.4358 17.6579 11.3075 16.3721C12.1791 15.0863 13.3516 13.9768 14.8248 13.0436C16.298 12.1105 18.0536 11.3699 20.0915 10.8219C22.1295 10.274 24.2656 10 26.5 10C28.7344 10 30.8705 10.274 32.9085 10.8219C34.9464 11.3699 36.702 12.1105 38.1752 13.0436C39.6484 13.9768 40.8209 15.0863 41.6925 16.3721C42.5642 17.6579 43 19.0061 43 20.4167Z" fill="white"/>
</svg>
