<svg width="53" height="45" viewBox="0 0 53 45" fill="none" xmlns="http://www.w3.org/2000/svg">
<rect width="53" height="45" rx="10" fill="#FF0000"/>
<path d="M26.426 28.75L28.5717 26.6903L25.7601 23.9915L23.6143 26.0511V27.0455H25.3901V28.75H26.426ZM34.5465 16.5518C34.7562 16.3506 34.7623 16.1553 34.565 15.9659C34.3677 15.7765 34.1642 15.7824 33.9546 15.9837L27.4804 22.1982C27.2707 22.3994 27.2646 22.5947 27.4619 22.7841C27.6592 22.9735 27.8627 22.9676 28.0723 22.7663L34.5465 16.5518ZM36.0448 26.5128V29.8864C36.0448 31.295 35.5238 32.4994 34.4818 33.4996C33.4397 34.4999 32.185 35 30.7175 35H15.3274C13.8599 35 12.6051 34.4999 11.5631 33.4996C10.521 32.4994 10 31.295 10 29.8864V15.1136C10 13.705 10.521 12.5006 11.5631 11.5004C12.6051 10.5001 13.8599 10 15.3274 10H30.7175C31.4944 10 32.2158 10.148 32.8817 10.4439C33.0667 10.5268 33.1777 10.6629 33.2147 10.8523C33.2517 11.0535 33.1962 11.2251 33.0482 11.3672L32.1418 12.2372C31.9692 12.4029 31.7719 12.4503 31.5499 12.3793C31.2663 12.3082 30.9888 12.2727 30.7175 12.2727H15.3274C14.5135 12.2727 13.8167 12.5509 13.2371 13.1072C12.6575 13.6636 12.3677 14.3324 12.3677 15.1136V29.8864C12.3677 30.6676 12.6575 31.3364 13.2371 31.8928C13.8167 32.4491 14.5135 32.7273 15.3274 32.7273H30.7175C31.5314 32.7273 32.2281 32.4491 32.8077 31.8928C33.3873 31.3364 33.6771 30.6676 33.6771 29.8864V27.6491C33.6771 27.4953 33.7326 27.3651 33.8436 27.2585L35.0275 26.1222C35.2124 25.9446 35.4283 25.9032 35.6749 25.9979C35.9215 26.0926 36.0448 26.2642 36.0448 26.5128ZM34.2691 13.4091L39.5964 18.5227L27.1659 30.4545H21.8386V25.3409L34.2691 13.4091ZM42.4821 15.7528L40.7803 17.3864L35.4529 12.2727L37.1547 10.6392C37.5 10.3078 37.9193 10.142 38.4126 10.142C38.9058 10.142 39.3251 10.3078 39.6704 10.6392L42.4821 13.3381C42.8274 13.6695 43 14.072 43 14.5455C43 15.0189 42.8274 15.4214 42.4821 15.7528Z" fill="white"/>
</svg>
