<svg width="120" height="100" viewBox="0 0 120 100" fill="none" xmlns="http://www.w3.org/2000/svg">
<path d="M41.9799 13.5957H94.5277L103.598 32.4986C103.38 34.8381 102.083 37.0163 99.9794 38.5764C97.8761 40.1365 95.1295 40.9573 92.3158 40.8666C89.502 40.776 86.8397 39.781 84.8871 38.0902C82.9346 36.3995 81.8434 34.1444 81.8426 31.7978C81.8426 30.591 81.2673 29.4335 80.2432 28.5801C79.2191 27.7267 77.8302 27.2473 76.3819 27.2473C74.9337 27.2473 73.5447 27.7267 72.5207 28.5801C71.4966 29.4335 70.9213 30.591 70.9213 31.7978C70.9373 32.9031 70.6886 34 70.1896 35.0242C69.6386 36.1394 69.6414 37.3913 70.1974 38.5048C70.7533 39.6183 71.817 40.5023 73.1547 40.9626C73.4647 41.0404 73.7828 41.0937 74.1049 41.1219C76.0284 43.8199 78.7586 46.0561 82.029 47.6121C85.2993 49.1682 88.998 49.9909 92.7639 50V55.9157C92.7639 57.1226 93.3392 58.28 94.3633 59.1334C95.3873 59.9868 96.7763 60.4662 98.2245 60.4662C99.6728 60.4662 101.062 59.9868 102.086 59.1334C103.11 58.28 103.685 57.1226 103.685 55.9157V47.4699C106.96 45.8983 109.687 43.643 111.599 40.9261C113.51 38.2092 114.539 35.1244 114.585 31.9753C114.585 31.9298 114.601 31.8934 114.601 31.8479L114.606 31.7978C114.572 31.5341 114.508 31.2736 114.415 31.0197C114.389 30.7114 114.323 30.4063 114.219 30.1096L103.297 7.35691C102.892 6.51178 102.192 5.78731 101.288 5.27707C100.384 4.76684 99.3166 4.49429 98.2245 4.49462H41.9799C40.5316 4.49462 39.1427 4.97405 38.1186 5.82744C37.0945 6.68083 36.5192 7.83828 36.5192 9.04516C36.5192 10.252 37.0945 11.4095 38.1186 12.2629C39.1427 13.1163 40.5316 13.5957 41.9799 13.5957ZM118.467 92.2881L102.451 78.9414C102.204 78.6815 101.922 78.4464 101.61 78.2406L47.2767 32.9628C46.9603 32.605 46.5811 32.289 46.1518 32.0254L22.7693 12.54C22.5588 12.328 22.3248 12.1329 22.0704 11.9575L9.25422 1.27739C8.22433 0.448472 6.84496 -0.010196 5.4132 0.000172022C3.98143 0.0105401 2.61183 0.489115 1.59939 1.33282C0.586938 2.17653 0.0126481 3.31786 0.000206427 4.511C-0.0122352 5.70413 0.538167 6.85361 1.53287 7.71185L12.2576 16.6491L5.82494 30.0277L5.78671 30.105C5.68838 30.3856 5.62435 30.6738 5.59559 30.9651C5.49552 31.2365 5.42785 31.5154 5.39354 31.7978L5.399 31.8525L5.41539 31.9617C5.4589 35.113 6.48692 38.2004 8.39817 40.9198C10.3094 43.6392 13.0379 45.8967 16.3148 47.4699V90.9548C16.3148 92.1617 16.8902 93.3192 17.9142 94.1726C18.9383 95.026 20.3272 95.5054 21.7755 95.5054H98.2245C99.3361 95.5016 100.419 95.2132 101.328 94.6792C102.236 94.1453 102.926 93.3916 103.303 92.5202L110.746 98.7226C111.776 99.5515 113.155 100.01 114.587 99.9998C116.019 99.9895 117.388 99.5109 118.401 98.6672C119.413 97.8235 119.987 96.6821 120 95.489C120.012 94.2959 119.462 93.1464 118.467 92.2881ZM16.4022 32.4941L20.6506 23.6433L36.3554 36.7306C35.3815 38.0106 34.0343 39.0642 32.4397 39.7931C30.8451 40.522 29.0549 40.9024 27.2361 40.8989C24.4932 40.8916 21.8544 40.0228 19.8463 38.4658C17.8381 36.9087 16.6083 34.778 16.4022 32.4986V32.4941ZM43.6181 63.6516V86.4043H27.2361V50C30.4869 50.0066 33.6976 49.4029 36.63 48.2338C39.5625 47.0648 42.1413 45.3603 44.1751 43.247L63.1999 59.1011H49.0787C47.6305 59.1011 46.2415 59.5805 45.2175 60.4339C44.1934 61.2873 43.6181 62.4447 43.6181 63.6516ZM65.4606 86.4043H54.5394V68.2022H65.4606V86.4043ZM92.7639 86.4043H76.3819V70.0861L92.7639 83.7377V86.4043Z" fill="black"/>
</svg>
