<svg width="53" height="45" viewBox="0 0 53 45" fill="none" xmlns="http://www.w3.org/2000/svg">
<rect width="53" height="45" rx="10" fill="#FF0001"/>
<path d="M42.6501 18.2969C42.8834 18.4948 43 18.7292 43 19C43 19.2708 42.8834 19.5052 42.6501 19.7031L33.2215 27.7031C32.9883 27.901 32.7121 28 32.3929 28C32.0737 28 31.7974 27.901 31.5642 27.7031C31.3309 27.5052 31.2143 27.2708 31.2143 27V23H27.0893C25.8862 23 24.8089 23.0312 23.8574 23.0938C22.906 23.1562 21.9607 23.2682 21.0215 23.4297C20.0823 23.5911 19.2659 23.8125 18.5723 24.0938C17.8786 24.375 17.231 24.737 16.6295 25.1797C16.0279 25.6224 15.5368 26.1484 15.1562 26.7578C14.7757 27.3672 14.478 28.0885 14.2631 28.9219C14.0483 29.7552 13.9408 30.6979 13.9408 31.75C13.9408 32.3229 13.9715 32.9635 14.0329 33.6719C14.0329 33.7344 14.0483 33.8568 14.079 34.0391C14.1097 34.2214 14.125 34.3594 14.125 34.4531C14.125 34.6094 14.0728 34.7396 13.9685 34.8438C13.8641 34.9479 13.7199 35 13.5357 35C13.3393 35 13.1674 34.9115 13.0201 34.7344C12.9342 34.6406 12.8544 34.526 12.7807 34.3906C12.707 34.2552 12.6242 34.099 12.5321 33.9219C12.44 33.7448 12.3756 33.6198 12.3387 33.5469C10.7796 30.5781 10 28.2292 10 26.5C10 24.4271 10.3253 22.6927 10.976 21.2969C12.9648 17.099 18.3359 15 27.0893 15H31.2143V11C31.2143 10.7292 31.3309 10.4948 31.5642 10.2969C31.7974 10.099 32.0737 10 32.3929 10C32.7121 10 32.9883 10.099 33.2215 10.2969L42.6501 18.2969Z" fill="white"/>
</svg>
